<svg width="1920" height="951" viewBox="0 0 1920 951" fill="none" xmlns="http://www.w3.org/2000/svg">
<g filter="url(#filter0_d_1752_9185)">
<rect x="452" y="242" width="478" height="80" rx="40" fill="white"/>
</g>
<path d="M523.822 281.734L525.275 277.688H526.884L525.79 281.734H523.822ZM527.056 281.734L528.509 277.688H530.118L529.025 281.734H527.056ZM544.548 281.703V283.156H542.454V290.359H540.688V276.266H542.454V281.703H544.548ZM533.61 277.625V285.406C535.524 285.383 537.509 285.227 539.626 284.812L539.813 286.25C537.423 286.75 535.142 286.875 533.048 286.875H531.876V277.625H533.61ZM550.118 277.234C552.352 277.242 554.001 278.656 554.008 280.656C554.001 282.664 552.352 284.086 550.118 284.078C547.899 284.086 546.235 282.664 546.243 280.656C546.235 278.656 547.899 277.242 550.118 277.234ZM550.118 278.75C548.876 278.758 547.954 279.477 547.946 280.656C547.954 281.836 548.876 282.578 550.118 282.578C551.36 282.578 552.282 281.836 552.274 280.656C552.282 279.477 551.36 278.758 550.118 278.75ZM557.29 276.266V290.406H555.54V276.266H557.29ZM545.602 286.016C548.102 286.023 551.665 286 554.712 285.547L554.837 286.828C551.712 287.43 548.298 287.461 545.821 287.469L545.602 286.016ZM567.773 277.281C569.055 277.289 570.117 278.008 570.758 279.25H574.023V276.266H575.773V290.406H574.023V285.078H570.867C570.25 286.469 569.133 287.281 567.773 287.281C565.672 287.281 564.156 285.336 564.164 282.281C564.156 279.234 565.672 277.289 567.773 277.281ZM567.773 278.875C566.617 278.883 565.82 280.125 565.82 282.281C565.82 284.445 566.617 285.695 567.773 285.703C568.953 285.695 569.742 284.445 569.742 282.281C569.742 280.125 568.953 278.883 567.773 278.875ZM571.242 280.672C571.344 281.164 571.398 281.703 571.398 282.281C571.398 282.766 571.359 283.227 571.289 283.656H574.023V280.672H571.242ZM589.14 276.266V281.781H591.234V283.234H589.14V290.359H587.375V276.266H589.14ZM585.39 277.734C585.398 281.891 583.687 285.516 579 287.844L578.015 286.516C581.39 284.805 583.265 282.43 583.609 279.172H578.75V277.734H585.39ZM601.796 279.625C601.796 282.258 603.163 284.828 605.452 285.828L604.421 287.25C602.78 286.477 601.593 284.977 600.952 283.125C600.296 285.117 599.077 286.734 597.374 287.547L596.312 286.094C598.655 285.055 600.038 282.344 600.03 279.625V277.406H601.796V279.625ZM608.202 276.266V290.406H606.452V276.266H608.202ZM621.741 276.281V280.344H623.725V281.781H621.741V286.438H619.975V276.281H621.741ZM617.913 277.344C617.921 281.102 615.46 283.766 611.288 284.984L610.553 283.594C613.788 282.664 615.717 280.906 616.022 278.75H611.147V277.344H617.913ZM622.288 288.688V290.109H612.678V285.406H614.428V288.688H622.288ZM631.186 276.484C634.397 276.484 636.287 277.344 636.28 278.906C636.287 280.469 634.397 281.336 631.186 281.328C627.983 281.336 626.084 280.469 626.092 278.906C626.084 277.344 627.983 276.484 631.186 276.484ZM631.186 277.781C629.022 277.789 627.912 278.172 627.905 278.906C627.912 279.664 629.022 280.031 631.186 280.031C633.35 280.031 634.467 279.664 634.467 278.906C634.467 278.172 633.35 277.789 631.186 277.781ZM637.623 282.094V283.484H624.748V282.094H637.623ZM636.03 284.438V287.891H628.014V288.922H636.42V290.266H626.28V286.656H634.295V285.75H626.248V284.438H636.03ZM646.998 277.281C648.912 277.289 650.334 278.883 650.592 281.453H653.248V276.266H654.998V290.406H653.248V282.875H650.607C650.42 285.586 648.967 287.281 646.998 287.281C644.896 287.281 643.381 285.336 643.388 282.281C643.381 279.234 644.896 277.289 646.998 277.281ZM646.998 278.875C645.842 278.883 645.052 280.125 645.06 282.281C645.052 284.445 645.842 285.695 646.998 285.703C648.177 285.695 648.959 284.445 648.967 282.281C648.959 280.125 648.177 278.883 646.998 278.875ZM669.474 284.547V285.891H659.146V284.547H663.443V283.359H665.208V284.547H669.474ZM664.287 286.406C666.88 286.406 668.404 287.117 668.412 288.391C668.404 289.68 666.88 290.391 664.287 290.391C661.724 290.391 660.185 289.68 660.193 288.391C660.185 287.117 661.724 286.406 664.287 286.406ZM664.287 287.609C662.865 287.609 662.06 287.867 662.068 288.391C662.06 288.93 662.872 289.188 664.287 289.188C665.74 289.188 666.537 288.93 666.537 288.391C666.537 287.867 665.74 287.609 664.287 287.609ZM661.224 276.875V278.25H659.287V281.469C659.958 281.445 660.622 281.375 661.38 281.219L661.521 282.609C660.294 282.844 659.365 282.859 658.24 282.859H657.568V276.875H661.224ZM665.88 276.875V278.25H663.662V281.469C664.755 281.461 665.458 281.398 666.287 281.203L666.443 282.578C665.341 282.836 664.482 282.859 662.677 282.859H661.943V276.875H665.88ZM669.271 276.281V283.781H667.521V280.391H665.412V279.062H667.521V276.281H669.271ZM683.638 276.266V290.375H681.966V276.266H683.638ZM680.622 276.594V289.719H678.982V283.203H676.482C675.661 284.828 674.325 286.242 672.325 287.406L671.325 286.172C674.263 284.43 675.599 282.234 675.857 279.391H672.06V277.969H677.591C677.591 279.336 677.427 280.617 677.044 281.812H678.982V276.594H680.622ZM700.918 276.281V281.875H703.075V283.344H700.918V290.375H699.153V276.281H700.918ZM698.09 278.422V279.828H689.762V278.422H693.075V276.484H694.84V278.422H698.09ZM693.965 280.766C696.012 280.758 697.52 282.133 697.512 284.078C697.52 286.023 696.012 287.398 693.965 287.391C691.918 287.398 690.411 286.023 690.418 284.078C690.411 282.133 691.918 280.758 693.965 280.766ZM693.965 282.203C692.872 282.203 692.09 282.93 692.09 284.078C692.09 285.227 692.872 285.961 693.965 285.953C695.051 285.961 695.84 285.227 695.84 284.078C695.84 282.93 695.051 282.203 693.965 282.203ZM711.223 277.438V278.578H714.051V276.281H715.817V286.562H714.051V283.031H711.223V284.234H704.598V277.438H711.223ZM706.317 278.828V282.844H709.52V278.828H706.317ZM716.129 288.688V290.109H706.488V285.609H708.254V288.688H716.129ZM711.223 281.609H714.051V280H711.223V281.609ZM729.519 277.547V278.969H724.816V285.516C727.042 285.508 728.589 285.422 730.332 285.109L730.503 286.531C728.535 286.898 726.847 286.977 724.175 286.969H723.066V277.547H729.519ZM734.238 276.266V290.406H732.472V282.672H728.769V281.219H732.472V276.266H734.238ZM751.893 276.281V279.094H753.862V280.531H751.893V283.359H750.143V276.281H751.893ZM751.893 283.969V287.672H744.409V288.828H752.362V290.219H742.675V286.391H750.175V285.328H742.643V283.969H751.893ZM744.675 276.719C746.831 276.719 748.417 278.031 748.425 279.891C748.417 281.75 746.831 283.07 744.675 283.062C742.511 283.07 740.925 281.75 740.925 279.891C740.925 278.031 742.511 276.719 744.675 276.719ZM744.675 278.141C743.495 278.133 742.62 278.828 742.612 279.891C742.62 280.969 743.495 281.656 744.675 281.656C745.854 281.656 746.722 280.969 746.722 279.891C746.722 278.828 745.854 278.133 744.675 278.141ZM759.901 280.719C759.901 282.836 761.065 285.109 763.213 286.141L762.276 287.469C760.745 286.758 759.643 285.359 759.057 283.703C758.432 285.492 757.268 286.992 755.651 287.734L754.698 286.375C756.924 285.352 758.151 282.953 758.151 280.719V280.016H755.151V278.625H758.151V276.578H759.901V278.625H762.854V280.016H759.901V280.719ZM765.979 276.281V281.859H768.151V283.312H765.979V290.375H764.213V276.281H765.979ZM781.252 276.266V290.375H779.58V276.266H781.252ZM778.237 276.594V289.719H776.596V283.203H774.096C773.276 284.828 771.94 286.242 769.94 287.406L768.94 286.172C771.877 284.43 773.213 282.234 773.471 279.391H769.674V277.969L775.205 277.969C775.205 279.336 775.041 280.617 774.658 281.812H776.596V276.594H778.237ZM800.345 287.25V288.687H787.455V287.25H793.002V284.5H788.877V277.203H790.611V279.5H797.142V277.203H798.892V284.5H794.752V287.25H800.345ZM790.611 283.094H797.142V280.891H790.611V283.094ZM813.681 276.281V283.453H812.009V280.594H810.525V283.406H808.868V276.531H810.525V279.187H812.009V276.281H813.681ZM803.962 277.047V281.437C805.259 281.422 806.533 281.344 807.947 281.062L808.118 282.484C806.337 282.812 804.829 282.875 803.15 282.875H802.212V277.047H803.962ZM813.681 284.016V287.703H805.884V288.828H814.165V290.219H804.134V286.406H811.931V285.391H804.118V284.016H813.681ZM827.368 277.422C827.36 279.18 829.344 280.992 832.337 281.406L831.633 282.828C829.251 282.445 827.36 281.266 826.446 279.656C825.524 281.273 823.626 282.445 821.227 282.828L820.524 281.406C823.54 280.992 825.508 279.203 825.508 277.422V276.703H827.368V277.422ZM832.868 284.031V285.469H827.258V290.375H825.508V285.469H819.993V284.031H832.868ZM843.414 285.453C843.406 286.617 843.945 287.852 845.148 288.609C846.375 287.789 846.93 286.516 846.93 285.453V284.875H848.648V285.453C848.648 286.914 849.531 288.305 851.383 288.891L850.523 290.187C849.156 289.719 848.25 288.812 847.758 287.687C847.305 288.797 846.469 289.789 845.18 290.312C843.852 289.82 843.008 288.859 842.555 287.734C842.047 288.82 841.148 289.711 839.836 290.187L838.977 288.891C840.805 288.25 841.711 286.812 841.711 285.453V284.875H843.414V285.453ZM850.148 276.281V284.297H848.383V276.281H850.148ZM842.445 277.031C844.625 277.031 846.25 278.422 846.258 280.391C846.25 282.344 844.625 283.727 842.445 283.734C840.25 283.727 838.617 282.344 838.617 280.391C838.617 278.422 840.25 277.031 842.445 277.031ZM842.445 278.484C841.227 278.492 840.344 279.227 840.336 280.391C840.344 281.539 841.227 282.273 842.445 282.266C843.648 282.273 844.531 281.539 844.539 280.391C844.531 279.227 843.648 278.492 842.445 278.484ZM858.953 276.484C862.164 276.484 864.054 277.344 864.047 278.906C864.054 280.469 862.164 281.336 858.953 281.328C855.75 281.336 853.851 280.469 853.859 278.906C853.851 277.344 855.75 276.484 858.953 276.484ZM858.953 277.781C856.789 277.789 855.679 278.172 855.672 278.906C855.679 279.664 856.789 280.031 858.953 280.031C861.117 280.031 862.234 279.664 862.234 278.906C862.234 278.172 861.117 277.789 858.953 277.781ZM865.39 282.094V283.484H852.515V282.094H865.39ZM863.797 284.437V287.891H855.781V288.922H864.187V290.266H854.047V286.656H862.062V285.75H854.015V284.437H863.797ZM877.929 276.266V281.891H879.898V283.344H877.929V290.375H876.179V276.266H877.929ZM870.882 277.734C870.89 281.453 870.382 284.578 867.851 287.344L866.46 286.344C868.437 284.242 869.101 282.008 869.242 279.172H867.038V277.734H870.882ZM874.804 277.734C874.804 281.578 874.398 285.195 871.867 288.25L870.476 287.281C872.46 284.875 873.038 282.258 873.148 279.172H871.367V277.734H874.804ZM883.718 285.266C883.726 282.016 886.358 282.422 886.358 280.687C886.358 279.805 885.679 279.242 884.702 279.234C883.632 279.242 882.983 279.914 882.983 281.016H880.999C881.007 278.859 882.569 277.469 884.78 277.469C886.819 277.469 888.421 278.633 888.421 280.609C888.421 283.18 885.702 282.852 885.702 285.203V285.484H883.718V285.266ZM884.718 289.156C883.976 289.156 883.444 288.641 883.452 287.937C883.444 287.234 883.976 286.719 884.718 286.719C885.444 286.719 885.976 287.234 885.983 287.937C885.976 288.641 885.444 289.156 884.718 289.156ZM892.928 277.687L891.475 281.734H889.866L890.96 277.687H892.928ZM896.178 277.687L894.725 281.734H893.116L894.21 277.687H896.178Z" fill="#FA7328"/>
<path d="M482.297 298.128H512.703V267.723H482.297V298.128Z" fill="white"/>
<g filter="url(#filter1_d_1752_9185)">
<rect x="1185" y="132" width="376" height="80" rx="40" fill="white"/>
</g>
<path d="M1257.25 171.734L1258.7 167.688H1260.31L1259.22 171.734H1257.25ZM1260.48 171.734L1261.94 167.688H1263.55L1262.45 171.734H1260.48ZM1269.27 169.906C1269.27 172.297 1270.1 174.625 1272.05 175.688L1271.02 177.078C1269.74 176.359 1268.91 175.109 1268.43 173.594C1267.91 175.266 1267.01 176.672 1265.68 177.469L1264.59 176.156C1266.66 174.953 1267.58 172.422 1267.57 170.031V167.531H1269.27V169.906ZM1276.99 166.266V180.375H1275.32V173.25H1273.88V179.719H1272.23V166.516H1273.88V171.812H1275.32V166.266H1276.99ZM1291.86 177.312V178.75H1278.97V177.312H1284.51V175.016H1280.5V170.391H1288.61V168.641H1280.47V167.234H1290.36V171.781H1282.23V173.609H1290.69V175.016H1286.26V177.312H1291.86ZM1306.01 173.234V174.641H1300.55V177.219H1298.77V174.641H1293.1V173.234H1306.01ZM1304.58 178.688V180.109H1294.66V175.922H1296.43V178.688H1304.58ZM1299.54 166.562C1302.58 166.562 1304.61 167.688 1304.62 169.453C1304.61 171.242 1302.58 172.352 1299.54 172.344C1296.5 172.352 1294.48 171.242 1294.48 169.453C1294.48 167.688 1296.5 166.562 1299.54 166.562ZM1299.54 167.969C1297.61 167.969 1296.35 168.492 1296.35 169.453C1296.35 170.406 1297.61 170.945 1299.54 170.938C1301.48 170.945 1302.73 170.406 1302.73 169.453C1302.73 168.492 1301.48 167.969 1299.54 167.969ZM1323.27 166.281V176.641H1321.51V166.281H1323.27ZM1323.66 178.688V180.109H1313.91V175.703H1315.66V178.688H1323.66ZM1316.88 169.562C1316.87 171.203 1318.08 172.828 1320.33 173.453L1319.51 174.844C1317.86 174.359 1316.68 173.359 1316.02 172.078C1315.4 173.469 1314.21 174.562 1312.54 175.078L1311.69 173.703C1313.94 173.023 1315.12 171.32 1315.12 169.562V169.375H1312.1V167.984H1315.12V166.344H1316.88V167.984H1319.88V169.375H1316.88V169.562ZM1336.94 167.125V168.359C1336.94 169.695 1336.94 171.148 1336.58 173.156H1338.53V174.578H1332.92V180.391H1331.15V174.578H1325.65V173.156H1334.81C1335.19 171.25 1335.21 169.797 1335.22 168.516H1327.19V167.125H1336.94ZM1352.69 172.672V173.969H1339.79V172.672H1352.69ZM1351.13 174.828V178.062H1343.04V179.031H1351.55V180.234H1341.3V176.922H1349.4V176.047H1341.27V174.828H1351.13ZM1351.08 166.578V169.766H1343.15V170.672H1351.35V171.875H1341.41V168.625H1349.35V167.781H1341.4V166.578H1351.08ZM1362.04 167.281C1363.95 167.289 1365.37 168.883 1365.63 171.453H1368.29V166.266H1370.04V180.406H1368.29V172.875H1365.65C1365.46 175.586 1364 177.281 1362.04 177.281C1359.93 177.281 1358.42 175.336 1358.43 172.281C1358.42 169.234 1359.93 167.289 1362.04 167.281ZM1362.04 168.875C1360.88 168.883 1360.09 170.125 1360.1 172.281C1360.09 174.445 1360.88 175.695 1362.04 175.703C1363.22 175.695 1364 174.445 1364 172.281C1364 170.125 1363.22 168.883 1362.04 168.875ZM1384.07 166.266V180.406H1382.32V166.266H1384.07ZM1380.03 167.547V168.984H1374.97V175.531C1377.59 175.523 1379.22 175.438 1381.07 175.078L1381.25 176.547C1379.21 176.93 1377.4 177 1374.4 177H1373.22V167.547H1380.03ZM1398.66 166.266V180.375H1396.99V166.266H1398.66ZM1395.75 166.516V179.719H1394.11V173H1392.74C1392.59 175.766 1391.43 177.43 1389.68 177.422C1387.82 177.43 1386.61 175.516 1386.61 172.375C1386.61 169.258 1387.82 167.32 1389.68 167.328C1391.38 167.32 1392.54 168.922 1392.72 171.562H1394.11V166.516H1395.75ZM1389.68 168.984C1388.77 168.984 1388.22 170.172 1388.22 172.375C1388.22 174.578 1388.77 175.773 1389.68 175.781C1390.6 175.773 1391.15 174.578 1391.14 172.375C1391.15 170.172 1390.6 168.984 1389.68 168.984ZM1405.84 169.625C1405.84 172.25 1407.09 174.836 1409.34 175.844L1408.29 177.25C1406.7 176.469 1405.58 174.969 1404.98 173.125C1404.36 175.07 1403.2 176.672 1401.59 177.484L1400.5 176.078C1402.73 175.023 1404.07 172.359 1404.07 169.625V167.391H1405.84V169.625ZM1412.48 166.266V180.406H1410.73V172.234H1407.78V170.812H1410.73V166.266H1412.48ZM1426.18 167.469V174.187H1419.5V167.469H1426.18ZM1421.21 168.875V172.781H1424.46V168.875H1421.21ZM1430.15 166.266V170.422H1432.14V171.875H1430.15V176.578H1428.4V166.266H1430.15ZM1430.73 178.687V180.109H1421.1V175.578H1422.87V178.687H1430.73ZM1446.05 171.891V173.281H1433.17V171.891H1446.05ZM1444.53 169.609V171H1434.82V166.609H1444.39V168.016H1436.55V169.609H1444.53ZM1444.44 174.25V177.828H1436.42V178.891H1444.83V180.25H1434.69V176.578H1442.71V175.578H1434.66V174.25H1444.44ZM1458.94 167.422C1458.93 169.18 1460.92 170.992 1463.91 171.406L1463.21 172.828C1460.82 172.445 1458.93 171.266 1458.02 169.656C1457.1 171.273 1455.2 172.445 1452.8 172.828L1452.1 171.406C1455.11 170.992 1457.08 169.203 1457.08 167.422V166.703H1458.94V167.422ZM1464.44 174.031V175.469H1458.83V180.375H1457.08V175.469H1451.56V174.031H1464.44ZM1474.99 175.453C1474.98 176.617 1475.52 177.852 1476.72 178.609C1477.95 177.789 1478.5 176.516 1478.5 175.453V174.875H1480.22V175.453C1480.22 176.914 1481.1 178.305 1482.95 178.891L1482.1 180.187C1480.73 179.719 1479.82 178.812 1479.33 177.687C1478.88 178.797 1478.04 179.789 1476.75 180.312C1475.42 179.82 1474.58 178.859 1474.13 177.734C1473.62 178.82 1472.72 179.711 1471.41 180.187L1470.55 178.891C1472.38 178.25 1473.28 176.812 1473.28 175.453V174.875H1474.99V175.453ZM1481.72 166.281V174.297H1479.95V166.281H1481.72ZM1474.02 167.031C1476.2 167.031 1477.82 168.422 1477.83 170.391C1477.82 172.344 1476.2 173.727 1474.02 173.734C1471.82 173.727 1470.19 172.344 1470.19 170.391C1470.19 168.422 1471.82 167.031 1474.02 167.031ZM1474.02 168.484C1472.8 168.492 1471.92 169.227 1471.91 170.391C1471.92 171.539 1472.8 172.273 1474.02 172.266C1475.22 172.273 1476.1 171.539 1476.11 170.391C1476.1 169.227 1475.22 168.492 1474.02 168.484ZM1490.52 166.484C1493.74 166.484 1495.63 167.344 1495.62 168.906C1495.63 170.469 1493.74 171.336 1490.52 171.328C1487.32 171.336 1485.42 170.469 1485.43 168.906C1485.42 167.344 1487.32 166.484 1490.52 166.484ZM1490.52 167.781C1488.36 167.789 1487.25 168.172 1487.24 168.906C1487.25 169.664 1488.36 170.031 1490.52 170.031C1492.69 170.031 1493.81 169.664 1493.81 168.906C1493.81 168.172 1492.69 167.789 1490.52 167.781ZM1496.96 172.094V173.484H1484.09V172.094H1496.96ZM1495.37 174.437V177.891H1487.35V178.922H1495.76V180.266H1485.62V176.656H1493.63V175.75H1485.59V174.437H1495.37ZM1509.5 166.266V171.891H1511.47V173.344H1509.5V180.375H1507.75V166.266H1509.5ZM1502.45 167.734C1502.46 171.453 1501.95 174.578 1499.42 177.344L1498.03 176.344C1500.01 174.242 1500.67 172.008 1500.81 169.172H1498.61V167.734H1502.45ZM1506.38 167.734C1506.38 171.578 1505.97 175.195 1503.44 178.25L1502.05 177.281C1504.03 174.875 1504.61 172.258 1504.72 169.172H1502.94V167.734H1506.38ZM1515.29 175.266C1515.3 172.016 1517.93 172.422 1517.93 170.687C1517.93 169.805 1517.25 169.242 1516.27 169.234C1515.2 169.242 1514.56 169.914 1514.56 171.016H1512.57C1512.58 168.859 1514.14 167.469 1516.35 167.469C1518.39 167.469 1519.99 168.633 1519.99 170.609C1519.99 173.18 1517.27 172.852 1517.27 175.203V175.484H1515.29V175.266ZM1516.29 179.156C1515.55 179.156 1515.02 178.641 1515.02 177.937C1515.02 177.234 1515.55 176.719 1516.29 176.719C1517.02 176.719 1517.55 177.234 1517.56 177.937C1517.55 178.641 1517.02 179.156 1516.29 179.156ZM1524.5 167.687L1523.05 171.734H1521.44L1522.53 167.687H1524.5ZM1527.75 167.687L1526.3 171.734H1524.69L1525.78 167.687H1527.75Z" fill="#FA7328"/>
<path d="M1215.3 188.128H1245.7V157.723H1215.3V188.128Z" fill="white"/>
<g filter="url(#filter2_d_1752_9185)">
<rect x="755" y="132" width="400" height="80" rx="40" fill="white"/>
</g>
<path d="M785.297 188.128H815.703V157.723H785.297V188.128Z" fill="white"/>
<path d="M827.223 171.734L828.676 167.688H830.285L829.191 171.734H827.223ZM830.457 171.734L831.91 167.688H833.519L832.426 171.734H830.457ZM847.683 174.266V175.688H842.058V180.375H840.308V175.688H834.777V174.266H847.683ZM846.089 166.984V172.609H836.324V166.984H846.089ZM838.058 168.391V171.234H844.371V168.391H838.058ZM860.769 166.281V176.609H859.003V171.469H856.488C856.152 173.133 854.683 174.281 852.847 174.281C850.73 174.281 849.12 172.781 849.128 170.719C849.12 168.641 850.73 167.148 852.847 167.141C854.714 167.148 856.198 168.328 856.503 170.047H859.003V166.281H860.769ZM861.113 178.688V180.109H851.488V175.594H853.253V178.688H861.113ZM852.847 168.672C851.675 168.68 850.808 169.469 850.8 170.719C850.808 171.945 851.675 172.742 852.847 172.734C854.011 172.742 854.878 171.945 854.878 170.719C854.878 169.469 854.011 168.68 852.847 168.672ZM874.151 166.266V171.781H876.245V173.234H874.151V180.359H872.386V166.266H874.151ZM870.401 167.734C870.409 171.891 868.698 175.516 864.011 177.844L863.026 176.516C866.401 174.805 868.276 172.43 868.62 169.172H863.761V167.734H870.401ZM890.128 172.672V173.969H877.221V172.672H890.128ZM888.565 174.828V178.062H880.471V179.031H888.987V180.234H878.737V176.922H886.831V176.047H878.706V174.828H888.565ZM888.518 166.578V169.766H880.581V170.672H888.784V171.875H878.846V168.625H886.784V167.781H878.831V166.578H888.518ZM900.08 169.906C900.08 172.297 900.908 174.625 902.861 175.688L901.83 177.078C900.549 176.359 899.713 175.109 899.236 173.594C898.721 175.266 897.814 176.672 896.486 177.469L895.393 176.156C897.463 174.953 898.385 172.422 898.377 170.031V167.531H900.08V169.906ZM907.799 166.266V180.375H906.127V173.25H904.689V179.719H903.033V166.516H904.689V171.812H906.127V166.266H907.799ZM922.666 173.344V174.75H909.759V173.344H915.338V172.328H911.384V168.766H919.322V167.859H911.369V166.5H921.056V170.031H913.119V171H921.338V172.328H917.088V173.344H922.666ZM913.166 175.328V176.391H919.369V175.328H921.103V180.219H911.431V175.328H913.166ZM913.166 178.844H919.369V177.703H913.166V178.844ZM936.111 166.266V180.375H934.439V166.266H936.111ZM933.095 166.594V179.719H931.454V173.203H928.954C928.134 174.828 926.798 176.242 924.798 177.406L923.798 176.172C926.736 174.43 928.072 172.234 928.329 169.391H924.533V167.969H930.064C930.064 169.336 929.9 170.617 929.517 171.812H931.454V166.594H933.095ZM944.407 167.547V170.828H946.673V167.547H948.298V176.969H942.751V167.547H944.407ZM944.407 175.562H946.673V172.203H944.407V175.562ZM954.485 166.266V180.375H952.813V173.156H951.329V179.719H949.673V166.516H951.329V171.734H952.813V166.266L954.485 166.266ZM969.352 174.219V175.656H963.727V180.391H961.977V175.656L956.446 175.656V174.219L969.352 174.219ZM962.868 166.781C965.883 166.781 967.946 168.008 967.946 169.922C967.946 171.844 965.875 173.062 962.868 173.062C959.86 173.062 957.789 171.844 957.789 169.922C957.789 168.008 959.86 166.781 962.868 166.781ZM962.868 168.172C960.875 168.18 959.594 168.828 959.586 169.922C959.594 171.031 960.883 171.664 962.868 171.656C964.844 171.664 966.141 171.031 966.149 169.922C966.141 168.828 964.852 168.18 962.868 168.172ZM982.391 166.266V180.375H980.641V166.266H982.391ZM978.172 167.75C978.18 171.977 976.562 175.531 971.625 177.906L970.688 176.5C974.383 174.75 976.086 172.375 976.391 169.156H971.406V167.75H978.172ZM996.929 166.266V180.375H995.258V166.266H996.929ZM994.023 166.516V179.719H992.383V173H991.008C990.859 175.766 989.695 177.43 987.945 177.422C986.086 177.43 984.883 175.516 984.883 172.375C984.883 169.258 986.086 167.32 987.945 167.328C989.648 167.32 990.804 168.922 990.992 171.562H992.383V166.516H994.023ZM987.945 168.984C987.039 168.984 986.492 170.172 986.492 172.375C986.492 174.578 987.039 175.773 987.945 175.781C988.867 175.773 989.422 174.578 989.414 172.375C989.422 170.172 988.867 168.984 987.945 168.984ZM1010.34 170.234V171.641H1000.53V166.781H1002.3V170.234H1010.34ZM1011.8 173.266V174.672H998.89V173.266H1011.8ZM1010.42 178.641V180.062H1000.42V175.891H1002.19V178.641H1010.42ZM1029.15 166.266V180.406H1027.39V172.156H1023.36V170.734H1027.39V166.266H1029.15ZM1019.78 167.797V175.594C1021.66 175.57 1023.55 175.43 1025.56 175.031L1025.75 176.469C1023.47 176.93 1021.37 177.062 1019.2 177.062H1018.03V167.797H1019.78ZM1044.33 174.266V175.687H1038.71V180.375H1036.96V175.687H1031.43V174.266H1044.33ZM1042.74 166.984V172.609H1032.98V166.984H1042.74ZM1034.71 168.391V171.234H1041.02V168.391H1034.71ZM1061.27 169.906V171.328H1051.55V166.641H1053.3V169.906H1061.27ZM1062.71 172.484V173.891H1049.83V172.484H1062.71ZM1061.22 175.062V176.453H1057.27C1057.65 177.672 1059.28 178.695 1061.79 178.984L1061.15 180.312C1058.87 180.023 1057.12 179.125 1056.26 177.812C1055.4 179.125 1053.65 180.023 1051.37 180.312L1050.74 178.984C1053.25 178.695 1054.87 177.672 1055.26 176.453H1051.29V175.062H1061.22ZM1076.84 173.547V174.953H1063.97V173.547H1076.84ZM1075.4 178.687V180.109H1065.56V176H1067.33V178.687H1075.4ZM1070.4 166.703C1073.47 166.711 1075.51 167.805 1075.5 169.578C1075.51 171.375 1073.47 172.461 1070.4 172.453C1067.33 172.461 1065.3 171.375 1065.31 169.578C1065.3 167.805 1067.33 166.711 1070.4 166.703ZM1070.4 168.109C1068.37 168.117 1067.12 168.633 1067.12 169.578C1067.12 170.539 1068.37 171.055 1070.4 171.062C1072.44 171.055 1073.68 170.539 1073.68 169.578C1073.68 168.633 1072.44 168.117 1070.4 168.109ZM1089.96 166.266V173.391H1088.19V170.812H1085.47V169.406H1088.19V166.266H1089.96ZM1085.33 166.859C1085.33 170.477 1083.04 172.727 1078.9 173.734L1078.3 172.328C1081.51 171.609 1083.18 170.133 1083.46 168.25H1079.1V166.859H1085.33ZM1089.96 173.953V177.687H1082.43V178.859H1090.32V180.234H1080.68V176.375H1088.21V175.344H1080.65V173.953H1089.96ZM1103.53 166.266V171.891H1105.5V173.344H1103.53V180.375H1101.78V166.266H1103.53ZM1096.48 167.734C1096.49 171.453 1095.98 174.578 1093.45 177.344L1092.06 176.344C1094.04 174.242 1094.7 172.008 1094.84 169.172H1092.64V167.734H1096.48ZM1100.4 167.734C1100.4 171.578 1100 175.195 1097.47 178.25L1096.08 177.281C1098.06 174.875 1098.64 172.258 1098.75 169.172H1096.97V167.734H1100.4ZM1109.32 175.266C1109.32 172.016 1111.96 172.422 1111.96 170.687C1111.96 169.805 1111.28 169.242 1110.3 169.234C1109.23 169.242 1108.58 169.914 1108.58 171.016H1106.6C1106.61 168.859 1108.17 167.469 1110.38 167.469C1112.42 167.469 1114.02 168.633 1114.02 170.609C1114.02 173.18 1111.3 172.852 1111.3 175.203V175.484H1109.32V175.266ZM1110.32 179.156C1109.57 179.156 1109.04 178.641 1109.05 177.937C1109.04 177.234 1109.57 176.719 1110.32 176.719C1111.04 176.719 1111.57 177.234 1111.58 177.937C1111.57 178.641 1111.04 179.156 1110.32 179.156ZM1118.53 167.687L1117.07 171.734H1115.46L1116.56 167.687H1118.53ZM1121.78 167.687L1120.32 171.734H1118.71L1119.81 167.687H1121.78Z" fill="#FA7328"/>
<g filter="url(#filter3_d_1752_9185)">
<rect x="958" y="242" width="474" height="80" rx="40" fill="white"/>
</g>
<path d="M988.297 298.128H1018.7V267.723H988.297V298.128Z" fill="white"/>
<path d="M1029.94 281.734L1031.4 277.688H1033.01L1031.91 281.734H1029.94ZM1033.18 281.734L1034.63 277.688H1036.24L1035.15 281.734H1033.18ZM1050.37 282.938V284.359H1044.76V290.359H1043.01V284.359H1037.5V282.938H1040.81C1041.33 281.039 1041.42 279.617 1041.45 278.578H1038.53V277.172H1043.17V277.922C1043.17 278.969 1043.17 280.617 1042.61 282.938H1046.73C1047.14 281.07 1047.21 279.648 1047.22 278.578H1044.17V277.172H1048.95V278.031C1048.95 279.141 1048.95 280.734 1048.5 282.938H1050.37ZM1063.36 276.906V278.312H1059.29C1059.47 279.625 1061.18 280.883 1063.88 281.188L1063.22 282.594C1060.72 282.281 1058.84 281.18 1058.1 279.641C1057.33 281.172 1055.46 282.281 1052.94 282.594L1052.3 281.188C1055 280.883 1056.71 279.625 1056.9 278.312H1052.83V276.906H1063.36ZM1064.54 283.375V284.781H1059.11V287.344H1057.35V284.781H1051.65V283.375H1064.54ZM1063.11 288.688V290.109H1053.19V286.062H1054.94V288.688H1063.11ZM1077.54 276.266V290.375H1075.79V276.266H1077.54ZM1074.59 278.438V279.859H1066.12V278.438H1069.47V276.453H1071.23V278.438H1074.59ZM1070.37 280.766C1072.43 280.758 1073.97 282.133 1073.97 284.078C1073.97 286.023 1072.43 287.398 1070.37 287.391C1068.29 287.398 1066.77 286.023 1066.78 284.078C1066.77 282.133 1068.29 280.758 1070.37 280.766ZM1070.37 282.203C1069.25 282.203 1068.44 282.93 1068.45 284.078C1068.44 285.227 1069.25 285.961 1070.37 285.953C1071.48 285.961 1072.27 285.227 1072.28 284.078C1072.27 282.93 1071.48 282.203 1070.37 282.203ZM1091.36 277.469V284.188H1084.67V277.469H1091.36ZM1086.39 278.875V282.781H1089.64V278.875H1086.39ZM1095.32 276.266V280.422H1097.31V281.875H1095.32V286.578H1093.57V276.266H1095.32ZM1095.9 288.688V290.109H1086.28V285.578H1088.04V288.688H1095.9ZM1109.47 276.266V279H1111.46V280.453H1109.47V283.281H1107.72V276.266H1109.47ZM1100.71 276.891V281.344C1102.61 281.312 1104.49 281.156 1106.44 280.766L1106.64 282.203C1104.31 282.672 1102.14 282.805 1100.13 282.797H1098.96V276.891H1100.71ZM1109.47 283.906V287.641H1102V288.812H1109.94V290.219H1100.25V286.328H1107.72V285.281H1100.22V283.906H1109.47ZM1124.11 277.422C1124.1 279.18 1126.09 280.992 1129.08 281.406L1128.38 282.828C1125.99 282.445 1124.1 281.266 1123.19 279.656C1122.27 281.273 1120.37 282.445 1117.97 282.828L1117.27 281.406C1120.28 280.992 1122.25 279.203 1122.25 277.422V276.703H1124.11V277.422ZM1129.61 284.031V285.469H1124V290.375H1122.25V285.469H1116.74V284.031H1129.61ZM1140.16 285.453C1140.15 286.617 1140.69 287.852 1141.89 288.609C1143.12 287.789 1143.67 286.516 1143.67 285.453V284.875H1145.39V285.453C1145.39 286.914 1146.28 288.305 1148.13 288.891L1147.27 290.188C1145.9 289.719 1144.99 288.812 1144.5 287.688C1144.05 288.797 1143.21 289.789 1141.92 290.312C1140.6 289.82 1139.75 288.859 1139.3 287.734C1138.79 288.82 1137.89 289.711 1136.58 290.188L1135.72 288.891C1137.55 288.25 1138.46 286.812 1138.46 285.453V284.875H1140.16V285.453ZM1146.89 276.281V284.297H1145.13V276.281H1146.89ZM1139.19 277.031C1141.37 277.031 1142.99 278.422 1143 280.391C1142.99 282.344 1141.37 283.727 1139.19 283.734C1136.99 283.727 1135.36 282.344 1135.36 280.391C1135.36 278.422 1136.99 277.031 1139.19 277.031ZM1139.19 278.484C1137.97 278.492 1137.09 279.227 1137.08 280.391C1137.09 281.539 1137.97 282.273 1139.19 282.266C1140.39 282.273 1141.28 281.539 1141.28 280.391C1141.28 279.227 1140.39 278.492 1139.19 278.484ZM1160.71 280.234V281.641H1150.9V276.781H1152.67V280.234H1160.71ZM1162.17 283.266V284.672H1149.26V283.266H1162.17ZM1160.79 288.641V290.062H1150.79V285.891H1152.56V288.641H1160.79ZM1180.56 287.234V288.688H1167.67V287.234H1173.21V284.188H1169.07V277.359H1179.09V284.188H1174.96V287.234H1180.56ZM1170.79 278.766V282.781H1177.37V278.766H1170.79ZM1193.58 276.281V284.297H1191.81V276.281H1193.58ZM1193.58 284.969V290.219H1184.2V284.969H1193.58ZM1185.94 286.359V288.812H1191.84V286.359H1185.94ZM1185.88 276.953C1188.06 276.953 1189.68 278.336 1189.69 280.312C1189.68 282.266 1188.06 283.664 1185.88 283.656C1183.68 283.664 1182.05 282.266 1182.05 280.312C1182.05 278.336 1183.68 276.953 1185.88 276.953ZM1185.88 278.422C1184.66 278.422 1183.77 279.148 1183.77 280.312C1183.77 281.469 1184.66 282.195 1185.88 282.188C1187.07 282.195 1187.96 281.469 1187.97 280.312C1187.96 279.148 1187.08 278.422 1185.88 278.422ZM1202.38 276.484C1205.59 276.484 1207.48 277.344 1207.48 278.906C1207.48 280.469 1205.59 281.336 1202.38 281.328C1199.18 281.336 1197.28 280.469 1197.29 278.906C1197.28 277.344 1199.18 276.484 1202.38 276.484ZM1202.38 277.781C1200.22 277.789 1199.11 278.172 1199.1 278.906C1199.11 279.664 1200.22 280.031 1202.38 280.031C1204.55 280.031 1205.66 279.664 1205.66 278.906C1205.66 278.172 1204.55 277.789 1202.38 277.781ZM1208.82 282.094V283.484H1195.95V282.094H1208.82ZM1207.23 284.438V287.891H1199.21V288.922H1207.62V290.266H1197.48V286.656H1205.49V285.75H1197.45V284.438H1207.23ZM1218.2 277.281C1220.11 277.289 1221.53 278.883 1221.79 281.453H1224.45V276.266H1226.2V290.406H1224.45V282.875H1221.8C1221.62 285.586 1220.16 287.281 1218.2 287.281C1216.09 287.281 1214.58 285.336 1214.59 282.281C1214.58 279.234 1216.09 277.289 1218.2 277.281ZM1218.2 278.875C1217.04 278.883 1216.25 280.125 1216.26 282.281C1216.25 284.445 1217.04 285.695 1218.2 285.703C1219.37 285.695 1220.16 284.445 1220.16 282.281C1220.16 280.125 1219.37 278.883 1218.2 278.875ZM1240.67 284.547V285.891H1230.34V284.547H1234.64V283.359H1236.41V284.547H1240.67ZM1235.48 286.406C1238.08 286.406 1239.6 287.117 1239.61 288.391C1239.6 289.68 1238.08 290.391 1235.48 290.391C1232.92 290.391 1231.38 289.68 1231.39 288.391C1231.38 287.117 1232.92 286.406 1235.48 286.406ZM1235.48 287.609C1234.06 287.609 1233.26 287.867 1233.26 288.391C1233.26 288.93 1234.07 289.188 1235.48 289.188C1236.94 289.188 1237.73 288.93 1237.73 288.391C1237.73 287.867 1236.94 287.609 1235.48 287.609ZM1232.42 276.875V278.25H1230.48V281.469C1231.16 281.445 1231.82 281.375 1232.58 281.219L1232.72 282.609C1231.49 282.844 1230.56 282.859 1229.44 282.859H1228.76V276.875H1232.42ZM1237.08 276.875V278.25H1234.86V281.469C1235.95 281.461 1236.66 281.398 1237.48 281.203L1237.64 282.578C1236.54 282.836 1235.68 282.859 1233.87 282.859H1233.14V276.875H1237.08ZM1240.47 276.281V283.781H1238.72V280.391H1236.61V279.062H1238.72V276.281H1240.47ZM1254.84 276.266V290.375H1253.16V276.266H1254.84ZM1251.82 276.594V289.719H1250.18V283.203H1247.68C1246.86 284.828 1245.52 286.242 1243.52 287.406L1242.52 286.172C1245.46 284.43 1246.8 282.234 1247.05 279.391H1243.26V277.969H1248.79C1248.79 279.336 1248.62 280.617 1248.24 281.812H1250.18V276.594H1251.82ZM1272.77 276.266V290.406H1271.02V276.266H1272.77ZM1265.16 277.281C1267.31 277.289 1268.86 279.234 1268.87 282.281C1268.86 285.336 1267.31 287.281 1265.16 287.281C1263.04 287.281 1261.48 285.336 1261.48 282.281C1261.48 279.234 1263.04 277.289 1265.16 277.281ZM1265.16 278.875C1263.98 278.883 1263.17 280.125 1263.16 282.281C1263.17 284.445 1263.98 285.695 1265.16 285.703C1266.36 285.695 1267.17 284.445 1267.18 282.281C1267.17 280.125 1266.36 278.883 1265.16 278.875ZM1279.03 277.281C1280.94 277.289 1282.37 278.883 1282.62 281.453L1285.28 281.453V276.266H1287.03V290.406H1285.28V282.875L1282.64 282.875C1282.45 285.586 1281 287.281 1279.03 287.281C1276.93 287.281 1275.41 285.336 1275.42 282.281C1275.41 279.234 1276.93 277.289 1279.03 277.281ZM1279.03 278.875C1277.87 278.883 1277.08 280.125 1277.09 282.281C1277.08 284.445 1277.87 285.695 1279.03 285.703C1280.21 285.695 1280.99 284.445 1281 282.281C1280.99 280.125 1280.21 278.883 1279.03 278.875ZM1302.49 281.703V283.156H1300.4V290.359H1298.63V276.266H1300.4V281.703H1302.49ZM1291.55 277.625V285.406C1293.47 285.383 1295.45 285.227 1297.57 284.812L1297.76 286.25C1295.36 286.75 1293.08 286.875 1290.99 286.875H1289.82V277.625H1291.55ZM1314.61 276.266V279.187H1316.59V280.641H1314.61V283.344H1312.86V276.266H1314.61ZM1310.76 276.859C1310.77 280.531 1308.3 282.828 1304.08 283.734L1303.43 282.281C1306.83 281.617 1308.59 280.07 1308.83 278.25H1304.11V276.859H1310.76ZM1314.61 283.937V287.703H1307.12V288.859H1315.08V290.234H1305.39V286.375H1312.89V285.328H1305.36V283.937H1314.61ZM1329.25 277.422C1329.24 279.18 1331.22 280.992 1334.22 281.406L1333.51 282.828C1331.13 282.445 1329.24 281.266 1328.33 279.656C1327.4 281.273 1325.5 282.445 1323.11 282.828L1322.4 281.406C1325.42 280.992 1327.39 279.203 1327.39 277.422V276.703H1329.25V277.422ZM1334.75 284.031V285.469H1329.14V290.375H1327.39V285.469H1321.87V284.031H1334.75ZM1345.29 285.453C1345.29 286.617 1345.82 287.852 1347.03 288.609C1348.25 287.789 1348.81 286.516 1348.81 285.453V284.875H1350.53V285.453C1350.53 286.914 1351.41 288.305 1353.26 288.891L1352.4 290.187C1351.04 289.719 1350.13 288.812 1349.64 287.687C1349.18 288.797 1348.35 289.789 1347.06 290.312C1345.73 289.82 1344.89 288.859 1344.43 287.734C1343.93 288.82 1343.03 289.711 1341.71 290.187L1340.86 288.891C1342.68 288.25 1343.59 286.812 1343.59 285.453V284.875H1345.29V285.453ZM1352.03 276.281V284.297H1350.26V276.281H1352.03ZM1344.32 277.031C1346.5 277.031 1348.13 278.422 1348.14 280.391C1348.13 282.344 1346.5 283.727 1344.32 283.734C1342.13 283.727 1340.5 282.344 1340.5 280.391C1340.5 278.422 1342.13 277.031 1344.32 277.031ZM1344.32 278.484C1343.11 278.492 1342.22 279.227 1342.21 280.391C1342.22 281.539 1343.11 282.273 1344.32 282.266C1345.53 282.273 1346.41 281.539 1346.42 280.391C1346.41 279.227 1345.53 278.492 1344.32 278.484ZM1360.83 276.484C1364.04 276.484 1365.93 277.344 1365.93 278.906C1365.93 280.469 1364.04 281.336 1360.83 281.328C1357.63 281.336 1355.73 280.469 1355.74 278.906C1355.73 277.344 1357.63 276.484 1360.83 276.484ZM1360.83 277.781C1358.67 277.789 1357.56 278.172 1357.55 278.906C1357.56 279.664 1358.67 280.031 1360.83 280.031C1363 280.031 1364.11 279.664 1364.11 278.906C1364.11 278.172 1363 277.789 1360.83 277.781ZM1367.27 282.094V283.484H1354.39V282.094H1367.27ZM1365.68 284.437V287.891H1357.66V288.922H1366.07V290.266H1355.93V286.656H1363.94V285.75H1355.89V284.437H1365.68ZM1379.81 276.266V281.891H1381.78V283.344H1379.81V290.375H1378.06V276.266H1379.81ZM1372.76 277.734C1372.77 281.453 1372.26 284.578 1369.73 287.344L1368.34 286.344C1370.32 284.242 1370.98 282.008 1371.12 279.172H1368.92V277.734H1372.76ZM1376.68 277.734C1376.68 281.578 1376.28 285.195 1373.75 288.25L1372.36 287.281C1374.34 284.875 1374.92 282.258 1375.03 279.172H1373.25V277.734H1376.68ZM1385.6 285.266C1385.6 282.016 1388.24 282.422 1388.24 280.687C1388.24 279.805 1387.56 279.242 1386.58 279.234C1385.51 279.242 1384.86 279.914 1384.86 281.016H1382.88C1382.89 278.859 1384.45 277.469 1386.66 277.469C1388.7 277.469 1390.3 278.633 1390.3 280.609C1390.3 283.18 1387.58 282.852 1387.58 285.203V285.484H1385.6V285.266ZM1386.6 289.156C1385.85 289.156 1385.32 288.641 1385.33 287.937C1385.32 287.234 1385.85 286.719 1386.6 286.719C1387.32 286.719 1387.85 287.234 1387.86 287.937C1387.85 288.641 1387.32 289.156 1386.6 289.156ZM1394.81 277.687L1393.35 281.734H1391.74L1392.84 277.687H1394.81ZM1398.06 277.687L1396.6 281.734H1394.99L1396.09 277.687H1398.06Z" fill="#FA7328"/>
<g filter="url(#filter4_d_1752_9185)">
<rect x="360" y="132" width="364" height="80" rx="40" fill="white"/>
</g>
<path d="M390.297 188.128H420.703V157.723H390.297V188.128Z" fill="white"/>
<path d="M430.703 171.734L432.156 167.688H433.765L432.672 171.734H430.703ZM433.937 171.734L435.39 167.688H437L435.906 171.734H433.937ZM451.163 177.219V178.672H438.273V177.219H443.773V173.984H445.523V177.219H451.163ZM445.585 168.156C445.585 170.273 447.695 172.375 450.663 172.875L449.929 174.344C447.531 173.883 445.585 172.492 444.648 170.641C443.718 172.484 441.773 173.883 439.382 174.344L438.648 172.875C441.601 172.375 443.718 170.242 443.71 168.156V167.109H445.585V168.156ZM465.312 177.219V178.672H452.421V177.219H457.921V173.984H459.671V177.219H465.312ZM459.733 168.156C459.733 170.273 461.843 172.375 464.812 172.875L464.077 174.344C461.679 173.883 459.733 172.492 458.796 170.641C457.866 172.484 455.921 173.883 453.53 174.344L452.796 172.875C455.749 172.375 457.866 170.242 457.858 168.156V167.109H459.733V168.156ZM477.647 166.281V171.875H479.803V173.344H477.647V180.375H475.882V166.281H477.647ZM474.819 168.422V169.828H466.491V168.422H469.803V166.484H471.569V168.422H474.819ZM470.694 170.766C472.741 170.758 474.249 172.133 474.241 174.078C474.249 176.023 472.741 177.398 470.694 177.391C468.647 177.398 467.139 176.023 467.147 174.078C467.139 172.133 468.647 170.758 470.694 170.766ZM470.694 172.203C469.6 172.203 468.819 172.93 468.819 174.078C468.819 175.227 469.6 175.961 470.694 175.953C471.78 175.961 472.569 175.227 472.569 174.078C472.569 172.93 471.78 172.203 470.694 172.203ZM492.905 166.266V180.375H491.233V166.266H492.905ZM489.889 166.594V179.719H488.248V173.203H485.748C484.928 174.828 483.592 176.242 481.592 177.406L480.592 176.172C483.53 174.43 484.866 172.234 485.123 169.391H481.327V167.969H486.858C486.858 169.336 486.694 170.617 486.311 171.812H488.248V166.594H489.889ZM511.982 173.547V174.953H499.107V173.547H504.67V172.016H500.685V166.969H510.42V168.375H502.435V170.594H510.545V172.016H506.404V173.547H511.982ZM510.638 178.688V180.109H500.67V176H502.435V178.688H510.638ZM529.325 166.281V173.516H527.56V170.625H524.747V173.062H518.122V166.875H519.872V168.641H523.013V166.875H524.747V169.234H527.56V166.281H529.325ZM529.325 174.109V177.75H521.763V178.828H529.778V180.219H520.028V176.469H527.575V175.484H519.997V174.109H529.325ZM519.872 171.688H523.013V169.984H519.872V171.688ZM543.262 167.422C543.254 169.18 545.239 170.992 548.231 171.406L547.528 172.828C545.145 172.445 543.254 171.266 542.34 169.656C541.418 171.273 539.52 172.445 537.122 172.828L536.418 171.406C539.434 170.992 541.403 169.203 541.403 167.422V166.703H543.262V167.422ZM548.762 174.031V175.469H543.153V180.375H541.403V175.469H535.887V174.031H548.762ZM559.308 175.453C559.301 176.617 559.84 177.852 561.043 178.609C562.269 177.789 562.824 176.516 562.824 175.453V174.875H564.543V175.453C564.543 176.914 565.426 178.305 567.277 178.891L566.418 180.188C565.051 179.719 564.144 178.812 563.652 177.688C563.199 178.797 562.363 179.789 561.074 180.312C559.746 179.82 558.902 178.859 558.449 177.734C557.941 178.82 557.043 179.711 555.73 180.188L554.871 178.891C556.699 178.25 557.605 176.812 557.605 175.453V174.875H559.308V175.453ZM566.043 166.281V174.297H564.277V166.281H566.043ZM558.34 167.031C560.519 167.031 562.144 168.422 562.152 170.391C562.144 172.344 560.519 173.727 558.34 173.734C556.144 173.727 554.512 172.344 554.512 170.391C554.512 168.422 556.144 167.031 558.34 167.031ZM558.34 168.484C557.121 168.492 556.238 169.227 556.23 170.391C556.238 171.539 557.121 172.273 558.34 172.266C559.543 172.273 560.426 171.539 560.433 170.391C560.426 169.227 559.543 168.492 558.34 168.484ZM579.863 170.234V171.641H570.05V166.781H571.816V170.234H579.863ZM581.316 173.266V174.672H568.41V173.266H581.316ZM579.941 178.641V180.062H569.941V175.891H571.707V178.641H579.941ZM593.347 174.969C596.276 174.969 598.104 175.984 598.097 177.672C598.104 179.383 596.284 180.391 593.347 180.391C590.409 180.391 588.573 179.383 588.581 177.672C588.573 175.984 590.409 174.969 593.347 174.969ZM593.347 176.359C591.417 176.367 590.315 176.805 590.315 177.672C590.315 178.555 591.409 179.008 593.347 179.016C595.284 179.008 596.37 178.555 596.378 177.672C596.37 176.805 595.268 176.367 593.347 176.359ZM597.94 166.281V169.641H599.925V171.094H597.94V174.641H596.19V166.281H597.94ZM589.018 167.156V169.047H592.3V167.156H594.034V173.75H587.284V167.156H589.018ZM589.018 172.359H592.3V170.406H589.018V172.359ZM603.338 167V168.922H606.479V167H608.213V169.578H611.026V166.281H612.792V174H611.026V171H608.213V173.531H601.588V167H603.338ZM603.338 172.125H606.479V170.266H603.338V172.125ZM605.213 174.609V176.031H611.042V174.609H612.792V180.187H603.463V174.609H605.213ZM605.213 178.781H611.042V177.406H605.213V178.781ZM626.846 166.266V180.406H625.096V166.266H626.846ZM619.237 167.281C621.385 167.289 622.932 169.234 622.94 172.281C622.932 175.336 621.385 177.281 619.237 177.281C617.112 177.281 615.549 175.336 615.549 172.281C615.549 169.234 617.112 167.289 619.237 167.281ZM619.237 168.875C618.049 168.883 617.244 170.125 617.237 172.281C617.244 174.445 618.049 175.695 619.237 175.703C620.432 175.695 621.244 174.445 621.252 172.281C621.244 170.125 620.432 168.883 619.237 168.875ZM638.533 175.453C638.525 176.617 639.064 177.852 640.267 178.609C641.494 177.789 642.048 176.516 642.048 175.453V174.875H643.767V175.453C643.767 176.914 644.65 178.305 646.502 178.891L645.642 180.187C644.275 179.719 643.369 178.812 642.877 177.687C642.423 178.797 641.588 179.789 640.298 180.312C638.97 179.82 638.127 178.859 637.673 177.734C637.166 178.82 636.267 179.711 634.955 180.187L634.095 178.891C635.923 178.25 636.83 176.812 636.83 175.453V174.875H638.533V175.453ZM645.267 166.281V174.297H643.502V166.281H645.267ZM637.564 167.031C639.744 167.031 641.369 168.422 641.377 170.391C641.369 172.344 639.744 173.727 637.564 173.734C635.369 173.727 633.736 172.344 633.736 170.391C633.736 168.422 635.369 167.031 637.564 167.031ZM637.564 168.484C636.345 168.492 635.463 169.227 635.455 170.391C635.463 171.539 636.345 172.273 637.564 172.266C638.767 172.273 639.65 171.539 639.658 170.391C639.65 169.227 638.767 168.492 637.564 168.484ZM654.072 166.484C657.283 166.484 659.173 167.344 659.165 168.906C659.173 170.469 657.283 171.336 654.072 171.328C650.868 171.336 648.97 170.469 648.978 168.906C648.97 167.344 650.868 166.484 654.072 166.484ZM654.072 167.781C651.908 167.789 650.798 168.172 650.79 168.906C650.798 169.664 651.908 170.031 654.072 170.031C656.236 170.031 657.353 169.664 657.353 168.906C657.353 168.172 656.236 167.789 654.072 167.781ZM660.509 172.094V173.484H647.634V172.094H660.509ZM658.915 174.437V177.891H650.9V178.922H659.306V180.266H649.165V176.656H657.181V175.75H649.134V174.437H658.915ZM673.048 166.266V171.891H675.017V173.344H673.048V180.375H671.298V166.266H673.048ZM666.001 167.734C666.009 171.453 665.501 174.578 662.97 177.344L661.579 176.344C663.556 174.242 664.22 172.008 664.36 169.172H662.157V167.734H666.001ZM669.923 167.734C669.923 171.578 669.517 175.195 666.985 178.25L665.595 177.281C667.579 174.875 668.157 172.258 668.267 169.172H666.485V167.734H669.923ZM678.837 175.266C678.844 172.016 681.477 172.422 681.477 170.687C681.477 169.805 680.798 169.242 679.821 169.234C678.751 169.242 678.102 169.914 678.102 171.016H676.118C676.126 168.859 677.688 167.469 679.899 167.469C681.938 167.469 683.54 168.633 683.54 170.609C683.54 173.18 680.821 172.852 680.821 175.203V175.484H678.837V175.266ZM679.837 179.156C679.094 179.156 678.563 178.641 678.571 177.937C678.563 177.234 679.094 176.719 679.837 176.719C680.563 176.719 681.094 177.234 681.102 177.937C681.094 178.641 680.563 179.156 679.837 179.156ZM688.047 167.687L686.594 171.734H684.985L686.078 167.687H688.047ZM691.297 167.687L689.844 171.734H688.235L689.328 167.687H691.297Z" fill="#FA7328"/>
<circle cx="707" cy="499" r="445" fill="url(#paint0_radial_1752_9185)" fill-opacity="0.6"/>
<circle cx="1169" cy="556" r="445" fill="url(#paint1_radial_1752_9185)" fill-opacity="0.6"/>
<circle cx="1029" cy="445" r="445" fill="url(#paint2_radial_1752_9185)" fill-opacity="0.6"/>
<rect y="89" width="1920" height="862" fill="url(#paint3_linear_1752_9185)"/>
<mask id="path-20-inside-1_1752_9185" fill="white">
<path fill-rule="evenodd" clip-rule="evenodd" d="M996 376C1022.74 376 1046.93 386.933 1064.34 404.574C1076.17 394.248 1091.61 388 1108.5 388C1139.37 388 1165.4 408.88 1173.44 437.386C1211.37 441.345 1241 475.255 1241 516.5C1241 560.407 1207.42 596 1166 596C1154.37 596 1143.36 593.196 1133.54 588.19C1124.78 622.573 1093.61 648 1056.5 648C1034.84 648 1015.2 639.336 1000.86 625.283C987.152 651.842 959.447 670 927.5 670C895.633 670 867.986 651.932 854.244 625.481C843.567 639.766 826.603 649 807.5 649C775.777 649 749.951 623.534 749.026 591.766C710.397 588.721 680 556.41 680 517C680 477.264 710.902 444.746 749.984 442.165C755.029 414.755 778.861 394 807.5 394C821.604 394 834.543 399.034 844.646 407.418C856.449 394.265 873.517 386 892.5 386C907.608 386 921.504 391.235 932.497 400.003C949.42 385.064 971.652 376 996 376Z"/>
</mask>
<path fill-rule="evenodd" clip-rule="evenodd" d="M996 376C1022.74 376 1046.93 386.933 1064.34 404.574C1076.17 394.248 1091.61 388 1108.5 388C1139.37 388 1165.4 408.88 1173.44 437.386C1211.37 441.345 1241 475.255 1241 516.5C1241 560.407 1207.42 596 1166 596C1154.37 596 1143.36 593.196 1133.54 588.19C1124.78 622.573 1093.61 648 1056.5 648C1034.84 648 1015.2 639.336 1000.86 625.283C987.152 651.842 959.447 670 927.5 670C895.633 670 867.986 651.932 854.244 625.481C843.567 639.766 826.603 649 807.5 649C775.777 649 749.951 623.534 749.026 591.766C710.397 588.721 680 556.41 680 517C680 477.264 710.902 444.746 749.984 442.165C755.029 414.755 778.861 394 807.5 394C821.604 394 834.543 399.034 844.646 407.418C856.449 394.265 873.517 386 892.5 386C907.608 386 921.504 391.235 932.497 400.003C949.42 385.064 971.652 376 996 376Z" fill="#FFF8F4"/>
<path d="M1064.34 404.574L1062.34 406.541L1064.19 408.415L1066.18 406.684L1064.34 404.574ZM1173.44 437.386L1170.74 438.146L1171.26 439.974L1173.15 440.171L1173.44 437.386ZM1133.54 588.19L1134.81 585.695L1131.69 584.105L1130.83 587.499L1133.54 588.19ZM1000.86 625.283L1002.82 623.283L1000.11 620.629L998.371 623.999L1000.86 625.283ZM854.244 625.481L856.728 624.19L854.672 620.232L852.001 623.805L854.244 625.481ZM749.026 591.766L751.825 591.684L751.751 589.172L749.246 588.974L749.026 591.766ZM749.984 442.165L750.169 444.959L752.344 444.815L752.738 442.672L749.984 442.165ZM844.646 407.418L842.858 409.573L844.931 411.293L846.73 409.288L844.646 407.418ZM932.497 400.003L930.751 402.192L932.588 403.657L934.35 402.102L932.497 400.003ZM1066.33 402.607C1048.42 384.456 1023.52 373.2 996 373.2V378.8C1021.96 378.8 1045.44 389.411 1062.34 406.541L1066.33 402.607ZM1108.5 385.2C1090.91 385.2 1074.82 391.711 1062.49 402.464L1066.18 406.684C1077.52 396.784 1092.32 390.8 1108.5 390.8V385.2ZM1176.13 436.627C1167.77 406.957 1140.67 385.2 1108.5 385.2V390.8C1138.07 390.8 1163.04 410.802 1170.74 438.146L1176.13 436.627ZM1173.15 440.171C1209.54 443.97 1238.2 476.571 1238.2 516.5H1243.8C1243.8 473.939 1213.2 438.721 1173.73 434.601L1173.15 440.171ZM1238.2 516.5C1238.2 559.016 1205.72 593.2 1166 593.2V598.8C1209.12 598.8 1243.8 561.797 1243.8 516.5H1238.2ZM1166 593.2C1154.83 593.2 1144.26 590.507 1134.81 585.695L1132.27 590.685C1142.47 595.884 1153.92 598.8 1166 598.8V593.2ZM1056.5 650.8C1094.92 650.8 1127.19 624.475 1136.26 588.882L1130.83 587.499C1122.38 620.671 1092.3 645.2 1056.5 645.2V650.8ZM998.899 627.283C1013.74 641.827 1034.08 650.8 1056.5 650.8V645.2C1035.6 645.2 1016.66 636.844 1002.82 623.283L998.899 627.283ZM927.5 672.8C960.535 672.8 989.179 654.02 1003.35 626.567L998.371 623.999C985.126 649.663 958.359 667.2 927.5 667.2V672.8ZM851.759 626.772C865.964 654.114 894.547 672.8 927.5 672.8V667.2C896.718 667.2 870.007 649.75 856.728 624.19L851.759 626.772ZM807.5 651.8C827.529 651.8 845.308 642.114 856.486 627.158L852.001 623.805C841.827 637.417 825.677 646.2 807.5 646.2V651.8ZM746.227 591.847C747.196 625.103 774.236 651.8 807.5 651.8V646.2C777.317 646.2 752.707 621.964 751.825 591.684L746.227 591.847ZM677.2 517C677.2 557.883 708.732 591.399 748.806 594.557L749.246 588.974C712.062 586.044 682.8 554.938 682.8 517H677.2ZM749.8 439.371C709.255 442.048 677.2 475.78 677.2 517H682.8C682.8 478.749 712.548 447.443 750.169 444.959L749.8 439.371ZM807.5 391.2C777.469 391.2 752.512 412.961 747.231 441.658L752.738 442.672C757.546 416.55 780.253 396.8 807.5 396.8V391.2ZM846.434 405.263C835.849 396.479 822.284 391.2 807.5 391.2V396.8C820.925 396.8 833.237 401.589 842.858 409.573L846.434 405.263ZM892.5 383.2C872.685 383.2 854.871 391.831 842.562 405.548L846.73 409.288C858.027 396.698 874.349 388.8 892.5 388.8V383.2ZM934.243 397.814C922.773 388.666 908.267 383.2 892.5 383.2V388.8C906.95 388.8 920.234 393.804 930.751 402.192L934.243 397.814ZM996 373.2C970.943 373.2 948.059 382.531 930.644 397.904L934.35 402.102C950.782 387.598 972.36 378.8 996 378.8V373.2Z" fill="#FCA778" mask="url(#path-20-inside-1_1752_9185)"/>
<path d="M756.905 491.32L759.419 484.617H762.39L760.613 491.32H756.905ZM762.517 491.32L765.03 484.617H768.001L766.224 491.32H762.517ZM789.621 492.133V494.748H781.242V484.109H789.468V486.75H784.492V492.133H789.621ZM791.068 499.979V502.67H769.968V499.979H778.804V495.713H782.08V499.979H791.068ZM779.795 484.135V486.75H774.869V492.031C776.684 491.993 778.208 491.866 779.947 491.523L780.175 494.215C777.84 494.672 775.884 494.735 773.041 494.748H771.568V484.135H779.795ZM811.19 482.23V490.838H814.592V493.555H811.19V505.336H807.914V482.23H811.19ZM796.92 484.033V489.67H801.719V484.033H804.969V499.979H793.67V484.033H796.92ZM796.92 497.338H801.719V492.209H796.92V497.338ZM835.958 482.23V505.311H832.835V482.23H835.958ZM831.159 482.586V504.295H828.087V493.402H826.208C825.941 497.947 824.024 500.639 821.155 500.639C818.108 500.639 816.128 497.478 816.128 492.234C816.128 487.042 818.108 483.843 821.155 483.83C823.948 483.843 825.839 486.433 826.182 490.736H828.087V482.586H831.159ZM821.155 486.953C819.873 486.953 819.111 488.692 819.124 492.234C819.111 495.776 819.873 497.528 821.155 497.541C822.501 497.528 823.25 495.776 823.262 492.234C823.25 488.692 822.501 486.953 821.155 486.953ZM847.675 487.359C847.675 491.739 849.401 495.979 853.235 497.668L851.28 500.309C848.716 499.052 847.002 496.767 846.05 493.91C845.047 496.919 843.27 499.382 840.667 500.689L838.61 498.049C842.444 496.271 844.374 491.917 844.374 487.359V483.982H847.675V487.359ZM858.466 482.205V505.387H855.191V492.107H850.671V489.467H855.191V482.205H858.466ZM876.238 487.893C876.238 491.879 877.356 495.649 880.606 497.414L878.701 500.004C876.695 498.887 875.4 497.021 874.639 494.723C873.826 497.287 872.43 499.42 870.348 500.689L868.291 498.252C871.782 496.195 873.065 492.057 873.065 488.146V484.211H876.238V487.893ZM888.756 482.23V505.311H885.633V493.859H883.678V504.295H880.606V482.586H883.678V491.193H885.633V482.23H888.756ZM912.838 500.105V502.771H891.739V500.105H900.626V496.627H894.176V488.832H907.202V486.318H894.126V483.729H910.452V491.396H897.426V494.012H910.985V496.627H903.901V500.105H912.838ZM935.829 493.479V496.068H927.12V500.055H923.794V496.068H914.73V493.479H935.829ZM933.519 502.289V504.93H917.192V497.998H920.493V502.289H933.519ZM925.241 482.637C930.269 482.649 933.633 484.516 933.62 487.436C933.633 490.381 930.269 492.234 925.241 492.234C920.252 492.234 916.888 490.381 916.888 487.436C916.888 484.516 920.252 482.649 925.241 482.637ZM925.241 485.252C922.296 485.252 920.404 485.988 920.417 487.436C920.404 488.87 922.296 489.619 925.241 489.619C928.225 489.619 930.104 488.87 930.091 487.436C930.104 485.988 928.225 485.252 925.241 485.252ZM956.293 484.109V495.281H945.197V484.109H956.293ZM948.447 486.725V492.666H953.068V486.725H948.447ZM962.844 482.23V488.908H965.967V491.6H962.844V499.09H959.568V482.23H962.844ZM963.707 502.289V504.93H947.863V497.439H951.139V502.289H963.707ZM985.834 482.23V487.08H988.958V489.797H985.834V495.23H982.559V482.23H985.834ZM985.834 496.297V505.082H970.702V496.297H985.834ZM973.926 498.887V502.492H982.635V498.887H973.926ZM971.743 483.322V491.346C974.574 491.295 977.557 491.054 980.731 490.432L981.086 493.072C977.291 493.859 973.66 494.062 970.397 494.062H968.442V483.322H971.743ZM1001.03 482.535C1006.36 482.548 1009.47 483.944 1009.49 486.496C1009.47 489.048 1006.36 490.444 1001.03 490.457C995.736 490.444 992.613 489.048 992.601 486.496C992.613 483.944 995.736 482.548 1001.03 482.535ZM1001.03 484.973C997.641 484.96 996.028 485.455 996.028 486.496C996.028 487.575 997.641 488.045 1001.03 488.045C1004.45 488.045 1006.07 487.575 1006.06 486.496C1006.07 485.455 1004.45 484.96 1001.03 484.973ZM1011.59 491.523V494.113H990.493V491.523H1011.59ZM1009.03 495.434V501.35H996.206V502.695H1009.64V505.184H992.956V499.064H1005.78V497.871H992.905V495.434H1009.03ZM1039.17 492.539V495.18H1032.49V500.029H1041.43V502.721H1020.33V500.029H1029.21V495.18H1022.79V483.805H1038.99V486.445H1026.06V492.539H1039.17ZM1062.82 482.256V499.09H1059.49V490.863H1055.81V488.223H1059.49V482.256H1062.82ZM1063.32 502.289V504.93H1047.43V497.668H1050.73V502.289H1063.32ZM1052.05 486.699C1052.05 489.467 1053.7 492.298 1057.36 493.529L1055.73 496.068C1053.18 495.23 1051.44 493.555 1050.45 491.447C1049.42 493.771 1047.57 495.624 1044.84 496.525L1043.19 493.936C1047.01 492.666 1048.72 489.645 1048.72 486.725V486.42H1044.08V483.805H1056.62V486.42H1052.05V486.699ZM1084.56 482.23V491.244H1087.94V493.986H1084.56V505.336H1081.29V482.23H1084.56ZM1079.76 485.633V488.273H1066.18V485.633H1071.36V482.611H1074.66V485.633H1079.76ZM1073.01 489.594C1076.41 489.581 1078.91 491.866 1078.93 495.078C1078.91 498.303 1076.41 500.588 1073.01 500.588C1069.63 500.588 1067.12 498.303 1067.12 495.078C1067.12 491.866 1069.63 489.581 1073.01 489.594ZM1073.01 492.26C1071.41 492.26 1070.26 493.313 1070.27 495.078C1070.26 496.868 1071.41 497.922 1073.01 497.922C1074.62 497.922 1075.78 496.868 1075.78 495.078C1075.78 493.313 1074.62 492.26 1073.01 492.26ZM1108.06 488.477V491.092H1091.89V483.043H1095.16V488.477H1108.06ZM1110.4 493.504V496.119H1089.3V493.504H1110.4ZM1108.19 502.213V504.828H1091.68V497.947H1094.99V502.213H1108.19ZM1138.61 482.23V497.566H1135.28V490.99H1131.24V488.35H1135.28V482.23H1138.61ZM1131.09 483.957C1131.1 490.254 1127.74 494.393 1120.73 496.602L1119.39 494.012C1124.6 492.476 1127.1 489.924 1127.56 486.598H1120.58V483.957H1131.09ZM1132.39 496.627C1132.37 499.255 1134.78 501.908 1139.67 502.695L1138.38 505.26C1134.75 504.638 1132.13 502.987 1130.73 500.766C1129.34 503 1126.72 504.663 1123.07 505.285L1121.8 502.695C1126.7 501.934 1129.11 499.268 1129.11 496.627V495.865H1132.39V496.627ZM1163.17 494.012V496.627H1142.07V494.012H1163.17ZM1160.81 502.289V504.93H1144.64V498.176H1147.91V502.289H1160.81ZM1152.61 482.916C1157.69 482.903 1161.05 484.731 1161.06 487.664C1161.05 490.622 1157.69 492.425 1152.61 492.412C1147.57 492.425 1144.19 490.622 1144.18 487.664C1144.19 484.731 1147.57 482.903 1152.61 482.916ZM1152.61 485.506C1149.46 485.519 1147.59 486.242 1147.58 487.664C1147.59 489.099 1149.46 489.822 1152.61 489.822C1155.78 489.822 1157.66 489.099 1157.66 487.664C1157.66 486.242 1155.78 485.519 1152.61 485.506ZM792.306 529.83C795.441 529.83 797.79 532.407 798.247 536.559H802.208V528.205H805.483V551.387H802.208V539.174H798.298C797.93 543.592 795.53 546.334 792.306 546.334C788.84 546.334 786.313 543.122 786.313 538.057C786.313 533.029 788.84 529.83 792.306 529.83ZM792.306 532.801C790.604 532.813 789.436 534.654 789.436 538.057C789.436 541.51 790.604 543.363 792.306 543.363C794.058 543.363 795.2 541.51 795.2 538.057C795.2 534.654 794.058 532.813 792.306 532.801ZM815.347 529.348V531.861H812.503V536.838C813.519 536.787 814.496 536.698 815.576 536.482L815.829 539.021C813.913 539.364 812.414 539.39 810.447 539.402H809.279V529.348H815.347ZM822.964 529.348V531.861H819.714V536.838C821.352 536.825 822.38 536.736 823.548 536.457L823.777 538.996C822.152 539.364 820.806 539.39 817.759 539.402H816.49V529.348H822.964ZM828.677 540.875V547.07H815.753V548.518H829.312V551.082H812.427V544.734H825.376V543.414H812.402V540.875H828.677ZM828.677 528.23V539.961H825.376V535.391H822.076V532.928H825.376V528.23H828.677ZM850.449 528.23V537.27H853.521V539.986H850.449V551.311H847.174V528.23H850.449ZM838.795 530.592C838.795 536.952 838.16 541.903 834.047 546.486L831.457 544.607C834.58 541.23 835.507 537.879 835.697 533.232H832.498V530.592H838.795ZM845.219 530.592C845.219 537.244 844.647 542.944 840.572 547.934L838.008 546.131C841.105 542.259 841.956 538.361 842.121 533.232H839.582V530.592H845.219ZM876.03 545.979V548.645H854.93V545.979H859.602V540.291C857.825 539.225 856.745 537.587 856.758 535.568C856.745 531.798 860.44 529.36 865.442 529.373C870.482 529.36 874.163 531.798 874.151 535.568C874.163 537.574 873.097 539.212 871.332 540.291V545.979H876.03ZM865.442 531.912C862.192 531.925 859.983 533.258 859.983 535.568C859.983 537.854 862.192 539.199 865.442 539.199C868.73 539.199 870.926 537.854 870.926 535.568C870.926 533.258 868.73 531.925 865.442 531.912ZM862.877 545.979H868.057V541.51C867.244 541.662 866.369 541.738 865.442 541.738C864.54 541.738 863.677 541.662 862.877 541.51V545.979ZM882.643 542.779C882.643 537.688 886.871 538.336 886.884 535.645C886.871 534.337 885.881 533.512 884.472 533.512C882.872 533.512 881.894 534.54 881.907 536.203H878.225C878.213 532.585 880.968 530.262 884.675 530.262C888.026 530.262 890.756 532.191 890.768 535.441C890.756 539.605 886.325 539.161 886.325 542.729V543.135H882.643V542.779ZM884.497 549.279C883.151 549.279 882.186 548.353 882.186 547.096C882.186 545.839 883.151 544.912 884.497 544.912C885.805 544.912 886.782 545.839 886.782 547.096C886.782 548.353 885.805 549.279 884.497 549.279ZM919.408 538.133V540.748H911.029V530.109H919.256V532.75H914.279V538.133H919.408ZM920.855 545.979V548.67H899.756V545.979H908.592V541.713H911.867V545.979H920.855ZM909.582 530.135V532.75H904.656V538.031C906.471 537.993 907.995 537.866 909.734 537.523L909.963 540.215C907.627 540.672 905.672 540.735 902.828 540.748H901.355V530.135H909.582ZM940.977 528.23V536.838H944.379V539.555H940.977V551.336H937.701V528.23H940.977ZM926.707 530.033V535.67H931.506V530.033H934.756V545.979H923.457V530.033H926.707ZM926.707 543.338H931.506V538.209H926.707V543.338ZM963.968 528.205V537.041H967.243V539.758H963.968V551.311H960.692V528.205H963.968ZM957.772 530.592C957.772 537.511 955.094 543.452 947.337 547.324L945.509 544.836C950.866 542.094 953.824 538.45 954.446 533.232H946.778V530.592H957.772ZM994.384 538.539V541.18H987.707V546.029H996.644V548.721H975.545V546.029H984.431V541.18H978.008V529.805H994.207V532.445H981.283V538.539H994.384ZM1005.39 529.576C1009.01 529.576 1011.73 531.95 1011.74 535.264C1011.73 538.031 1009.82 540.151 1007.07 540.748V543.922C1008.88 543.833 1010.7 543.693 1012.4 543.465L1012.65 545.852C1007.82 546.753 1002.57 546.74 998.662 546.74L998.281 544.074C999.906 544.074 1001.8 544.074 1003.79 544.023V540.748C1001.01 540.189 999.056 538.057 999.069 535.264C999.056 531.95 1001.79 529.576 1005.39 529.576ZM1005.39 532.369C1003.6 532.369 1002.26 533.423 1002.27 535.264C1002.26 537.079 1003.61 538.133 1005.39 538.133C1007.18 538.133 1008.54 537.079 1008.54 535.264C1008.54 533.423 1007.19 532.369 1005.39 532.369ZM1016.89 528.23V537.295H1020.02V540.012H1016.89V551.311H1013.64V528.23H1016.89ZM1040.37 538.895V541.51H1023.99V530.135H1040.19V532.775H1027.24V538.895H1040.37ZM1042.63 545.877V548.543H1021.53V545.877H1042.63ZM1056.5 529.297V535.594H1048.88V537.244C1053.15 537.231 1055.7 537.155 1058.58 536.686L1058.91 539.174C1055.69 539.707 1052.83 539.771 1047.67 539.758H1045.66V533.309H1053.25V531.76H1045.61V529.297H1056.5ZM1063.86 541.104V547.223H1051.7V548.695H1064.47V551.184H1048.38V544.912H1060.51V543.592H1048.35V541.104H1063.86ZM1063.86 528.23V540.266H1060.56V528.23H1063.86ZM1087.57 528.23V551.311H1084.42V528.23H1087.57ZM1082.59 528.713V550.295H1079.52V539.707H1075.84C1074.5 542.348 1072.36 544.62 1069.06 546.512L1067.2 544.227C1071.87 541.459 1073.93 538.133 1074.39 533.588H1068.5V530.947H1077.61C1077.61 533.144 1077.38 535.2 1076.85 537.092H1079.52V528.713H1082.59ZM1111.6 545.979V548.645H1090.5V545.979H1095.17V540.291C1093.39 539.225 1092.31 537.587 1092.33 535.568C1092.31 531.798 1096.01 529.36 1101.01 529.373C1106.05 529.36 1109.73 531.798 1109.72 535.568C1109.73 537.574 1108.67 539.212 1106.9 540.291V545.979H1111.6ZM1101.01 531.912C1097.76 531.925 1095.55 533.258 1095.55 535.568C1095.55 537.854 1097.76 539.199 1101.01 539.199C1104.3 539.199 1106.49 537.854 1106.49 535.568C1106.49 533.258 1104.3 531.925 1101.01 531.912ZM1098.45 545.979H1103.63V541.51C1102.81 541.662 1101.94 541.738 1101.01 541.738C1100.11 541.738 1099.25 541.662 1098.45 541.51V545.979ZM1119.13 542.83H1115.27V530.617H1119.13V542.83ZM1117.2 549.279C1115.85 549.279 1114.89 548.353 1114.89 547.096C1114.89 545.839 1115.85 544.912 1117.2 544.912C1118.5 544.912 1119.48 545.839 1119.48 547.096C1119.48 548.353 1118.5 549.279 1117.2 549.279ZM1128.33 530.617L1125.82 537.32H1122.84L1124.62 530.617H1128.33ZM1133.94 530.617L1131.43 537.32H1128.46L1130.23 530.617H1133.94Z" fill="#FA7328"/>
<path d="M743.241 430.913C727.368 425.623 694.475 421.109 689.887 445.369C684.152 475.695 742.685 425.808 672.195 417" stroke="#FCA778" stroke-width="2.6"/>
<path d="M1131.87 608.32C1145.46 618.069 1175.55 632.112 1187.11 610.294C1201.56 583.022 1130.89 613.361 1195.62 642.627" stroke="#FCA778" stroke-width="2.6"/>
<path d="M752.5 420.5C753.667 414.167 761.2 399.5 782 391.5" stroke="#FCA778" stroke-width="2"/>
<path d="M1229.99 571.851C1227.91 577.945 1218.31 591.353 1196.57 596.226" stroke="#FCA778" stroke-width="2"/>
<path d="M1182 432C1194.67 432 1222.9 439.2 1234.5 468" stroke="#FCA778" stroke-width="2"/>
<path d="M790.5 661C777.833 661 749.6 653.8 738 625" stroke="#FCA778" stroke-width="2"/>
<circle cx="727" cy="619" r="3" fill="#FCA778"/>
<circle cx="1072" cy="387" r="3" fill="#FCA778"/>
<circle cx="741" cy="420" r="3" fill="#FCA778"/>
<circle cx="1241" cy="565" r="3" fill="#FCA778"/>
<path d="M1006.33 641.566C1015.52 651.037 1045 664.999 1075.5 656.499" stroke="#FCA778" stroke-width="2"/>
<path d="M935.797 391.832C926.225 382.744 896.203 369.996 866.075 379.733" stroke="#FCA778" stroke-width="2"/>
<defs>
<filter id="filter0_d_1752_9185" x="411.459" y="205.514" width="559.081" height="161.081" filterUnits="userSpaceOnUse" color-interpolation-filters="sRGB">
<feFlood flood-opacity="0" result="BackgroundImageFix"/>
<feColorMatrix in="SourceAlpha" type="matrix" values="0 0 0 0 0 0 0 0 0 0 0 0 0 0 0 0 0 0 127 0" result="hardAlpha"/>
<feMorphology radius="10.1351" operator="dilate" in="SourceAlpha" result="effect1_dropShadow_1752_9185"/>
<feOffset dy="4.05405"/>
<feGaussianBlur stdDeviation="15.2027"/>
<feComposite in2="hardAlpha" operator="out"/>
<feColorMatrix type="matrix" values="0 0 0 0 0 0 0 0 0 0 0 0 0 0 0 0 0 0 0.08 0"/>
<feBlend mode="normal" in2="BackgroundImageFix" result="effect1_dropShadow_1752_9185"/>
<feBlend mode="normal" in="SourceGraphic" in2="effect1_dropShadow_1752_9185" result="shape"/>
</filter>
<filter id="filter1_d_1752_9185" x="1144.46" y="95.5135" width="457.081" height="161.081" filterUnits="userSpaceOnUse" color-interpolation-filters="sRGB">
<feFlood flood-opacity="0" result="BackgroundImageFix"/>
<feColorMatrix in="SourceAlpha" type="matrix" values="0 0 0 0 0 0 0 0 0 0 0 0 0 0 0 0 0 0 127 0" result="hardAlpha"/>
<feMorphology radius="10.1351" operator="dilate" in="SourceAlpha" result="effect1_dropShadow_1752_9185"/>
<feOffset dy="4.05405"/>
<feGaussianBlur stdDeviation="15.2027"/>
<feComposite in2="hardAlpha" operator="out"/>
<feColorMatrix type="matrix" values="0 0 0 0 0 0 0 0 0 0 0 0 0 0 0 0 0 0 0.08 0"/>
<feBlend mode="normal" in2="BackgroundImageFix" result="effect1_dropShadow_1752_9185"/>
<feBlend mode="normal" in="SourceGraphic" in2="effect1_dropShadow_1752_9185" result="shape"/>
</filter>
<filter id="filter2_d_1752_9185" x="714.459" y="95.5135" width="481.081" height="161.081" filterUnits="userSpaceOnUse" color-interpolation-filters="sRGB">
<feFlood flood-opacity="0" result="BackgroundImageFix"/>
<feColorMatrix in="SourceAlpha" type="matrix" values="0 0 0 0 0 0 0 0 0 0 0 0 0 0 0 0 0 0 127 0" result="hardAlpha"/>
<feMorphology radius="10.1351" operator="dilate" in="SourceAlpha" result="effect1_dropShadow_1752_9185"/>
<feOffset dy="4.05405"/>
<feGaussianBlur stdDeviation="15.2027"/>
<feComposite in2="hardAlpha" operator="out"/>
<feColorMatrix type="matrix" values="0 0 0 0 0 0 0 0 0 0 0 0 0 0 0 0 0 0 0.08 0"/>
<feBlend mode="normal" in2="BackgroundImageFix" result="effect1_dropShadow_1752_9185"/>
<feBlend mode="normal" in="SourceGraphic" in2="effect1_dropShadow_1752_9185" result="shape"/>
</filter>
<filter id="filter3_d_1752_9185" x="917.459" y="205.514" width="555.081" height="161.081" filterUnits="userSpaceOnUse" color-interpolation-filters="sRGB">
<feFlood flood-opacity="0" result="BackgroundImageFix"/>
<feColorMatrix in="SourceAlpha" type="matrix" values="0 0 0 0 0 0 0 0 0 0 0 0 0 0 0 0 0 0 127 0" result="hardAlpha"/>
<feMorphology radius="10.1351" operator="dilate" in="SourceAlpha" result="effect1_dropShadow_1752_9185"/>
<feOffset dy="4.05405"/>
<feGaussianBlur stdDeviation="15.2027"/>
<feComposite in2="hardAlpha" operator="out"/>
<feColorMatrix type="matrix" values="0 0 0 0 0 0 0 0 0 0 0 0 0 0 0 0 0 0 0.08 0"/>
<feBlend mode="normal" in2="BackgroundImageFix" result="effect1_dropShadow_1752_9185"/>
<feBlend mode="normal" in="SourceGraphic" in2="effect1_dropShadow_1752_9185" result="shape"/>
</filter>
<filter id="filter4_d_1752_9185" x="319.459" y="95.5135" width="445.081" height="161.081" filterUnits="userSpaceOnUse" color-interpolation-filters="sRGB">
<feFlood flood-opacity="0" result="BackgroundImageFix"/>
<feColorMatrix in="SourceAlpha" type="matrix" values="0 0 0 0 0 0 0 0 0 0 0 0 0 0 0 0 0 0 127 0" result="hardAlpha"/>
<feMorphology radius="10.1351" operator="dilate" in="SourceAlpha" result="effect1_dropShadow_1752_9185"/>
<feOffset dy="4.05405"/>
<feGaussianBlur stdDeviation="15.2027"/>
<feComposite in2="hardAlpha" operator="out"/>
<feColorMatrix type="matrix" values="0 0 0 0 0 0 0 0 0 0 0 0 0 0 0 0 0 0 0.08 0"/>
<feBlend mode="normal" in2="BackgroundImageFix" result="effect1_dropShadow_1752_9185"/>
<feBlend mode="normal" in="SourceGraphic" in2="effect1_dropShadow_1752_9185" result="shape"/>
</filter>
<radialGradient id="paint0_radial_1752_9185" cx="0" cy="0" r="1" gradientUnits="userSpaceOnUse" gradientTransform="translate(707 499) rotate(90) scale(445)">
<stop stop-color="#FAA628" stop-opacity="0.5"/>
<stop offset="1" stop-color="white" stop-opacity="0"/>
</radialGradient>
<radialGradient id="paint1_radial_1752_9185" cx="0" cy="0" r="1" gradientUnits="userSpaceOnUse" gradientTransform="translate(1169 556) rotate(90) scale(445)">
<stop stop-color="#FA7328" stop-opacity="0.5"/>
<stop offset="1" stop-color="white" stop-opacity="0"/>
</radialGradient>
<radialGradient id="paint2_radial_1752_9185" cx="0" cy="0" r="1" gradientUnits="userSpaceOnUse" gradientTransform="translate(1029 445) rotate(90) scale(445)">
<stop stop-color="#FA7328" stop-opacity="0.5"/>
<stop offset="1" stop-color="white" stop-opacity="0"/>
</radialGradient>
<linearGradient id="paint3_linear_1752_9185" x1="960" y1="89" x2="960" y2="951" gradientUnits="userSpaceOnUse">
<stop stop-color="white" stop-opacity="0"/>
<stop offset="1" stop-color="#FFDBC0"/>
</linearGradient>
</defs>
</svg>
