<svg width="102" height="103" viewBox="0 0 102 103" fill="none" xmlns="http://www.w3.org/2000/svg">
<path d="M81.7865 71.1502C73.9731 64.3904 53.6915 52.5708 35.0717 59.3706" stroke="#FCA778" stroke-width="3.6"/>
<path d="M99.9647 51.6942C98.4504 49.2292 94.0485 43.8307 88.5547 41.957" stroke="#FCA778" stroke-width="3.6"/>
<path d="M55.0736 86.4455C52.1501 86.2959 45.0565 86.9501 40.0703 90.7637" stroke="#FCA778" stroke-width="3.6"/>
<path d="M47.33 20.4818C47.7497 15.8896 53.8081 14.5295 56.1504 18.5016C57.1994 20.2805 59.2778 21.1776 61.2918 20.7208C65.7888 19.7009 68.9545 25.0425 65.9007 28.4976C64.533 30.045 64.3221 32.2988 65.3789 34.0731C67.7385 38.0349 63.6366 42.6963 59.4069 40.8596C57.5126 40.0371 55.3039 40.5329 53.943 42.0863C50.9043 45.5547 45.2035 43.094 45.6432 38.5037C45.8402 36.448 44.6861 34.5006 42.7882 33.6864C38.5505 31.8682 39.1291 25.686 43.6306 24.6857C45.6466 24.2378 47.142 22.5384 47.33 20.4818Z" fill="#FCA778"/>
<ellipse cx="6.52834" cy="78.3092" rx="5" ry="4.5" transform="rotate(-12.653 6.52834 78.3092)" fill="#FD8F2A"/>
<circle cx="83.3605" cy="96.4181" r="5" transform="rotate(-12.653 83.3605 96.4181)" fill="#FD8F2A"/>
</svg>
