<svg width="107" height="107" viewBox="0 0 107 107" fill="none" xmlns="http://www.w3.org/2000/svg">
<path d="M2 68C5.02051 62.0498 15.4492 48.5194 33 42" stroke="#FCA778" stroke-width="3.6"/>
<path d="M11.1773 86.8377C20.2762 82.6264 42.555 77.0095 58.8798 88.232" stroke="#FCA778" stroke-width="3.6"/>
<path d="M57.1829 53.3577C54.2689 53.0775 47.1526 53.4137 42 57" stroke="#FCA778" stroke-width="3.6"/>
<path d="M44.0704 13.735C45.4575 9.43403 51.5425 9.43404 52.9296 13.735C53.5508 15.6611 55.3455 16.965 57.3694 16.9606C61.8884 16.9508 63.7688 22.738 60.107 25.3862C58.4671 26.5722 57.7815 28.682 58.4112 30.6055C59.817 34.9003 54.8941 38.477 51.2439 35.8128C49.6092 34.6196 47.3908 34.6196 45.7561 35.8128C42.1059 38.477 37.183 34.9003 38.5888 30.6055C39.2185 28.682 38.5329 26.5722 36.893 25.3862C33.2312 22.738 35.1116 16.9508 39.6306 16.9606C41.6545 16.965 43.4492 15.6611 44.0704 13.735Z" fill="#FCA778"/>
<circle cx="82" cy="84" r="5" fill="#FD8F2A"/>
<circle cx="102" cy="53" r="5" fill="#FD8F2A"/>
</svg>
