<svg width="101" height="65" viewBox="0 0 101 65" fill="none" xmlns="http://www.w3.org/2000/svg">
<path d="M98.1729 57.9315L100.241 60.1044L95.8956 64.2414L93.8271 62.0685L98.1729 57.9315ZM73.3091 28.8245L70.5724 30.0537L73.3091 28.8245ZM93.8271 62.0685C92.846 61.0378 81.5869 48.3545 69.5441 39.0827C63.4513 34.3919 57.5789 30.9154 52.9825 29.9958C50.753 29.5498 49.1317 29.7677 47.953 30.4196C46.804 31.055 45.603 32.3646 44.7297 35.0907L39.0158 33.2603C40.2106 29.5303 42.1969 26.7466 45.0491 25.1691C47.8715 23.6081 51.0653 23.4934 54.1596 24.1124C60.2107 25.3231 67.0209 29.5678 73.2044 34.3285C85.714 43.9598 97.3822 57.101 98.1729 57.9315L93.8271 62.0685ZM44.7297 35.0907C43.8164 37.9419 43.7902 40.0389 44.1656 41.5376C44.5301 42.9927 45.321 44.0877 46.46 44.9195C48.874 46.6825 53.0391 47.3456 57.6859 46.5188C62.2732 45.7027 66.6027 43.5521 69.1696 40.6348C71.5775 37.8981 72.5383 34.4305 70.5724 30.0537L76.0457 27.5953C79.0435 34.2696 77.5225 40.2244 73.6742 44.5982C69.9848 48.7913 64.2837 51.4392 58.7369 52.4261C53.2495 53.4024 47.1772 52.8731 42.9213 49.7649C40.7254 48.1612 39.0732 45.9008 38.3454 42.9955C37.6286 40.1338 37.8609 36.8652 39.0158 33.2603L44.7297 35.0907ZM70.5724 30.0537C66.9972 22.0938 59.7991 16.3628 51.8895 12.4337C44.001 8.5152 35.7511 6.56592 30.6574 5.98037L31.3426 0.0196276C37.0428 0.674896 45.9766 2.79705 54.5587 7.06017C63.1196 11.3127 71.6791 17.8736 76.0457 27.5953L70.5724 30.0537Z" fill="#FA7328"/>
<circle cx="4" cy="4" r="4" fill="#FD8F2A"/>
</svg>
