<svg width="100" height="65" viewBox="0 0 100 65" fill="none" xmlns="http://www.w3.org/2000/svg">
<path d="M2.82713 57.9315L0.758643 60.1044L5.10437 64.2414L7.17287 62.0685L2.82713 57.9315ZM27.6909 28.8245L30.4276 30.0537L27.6909 28.8245ZM7.17287 62.0685C8.15402 61.0378 19.4131 48.3545 31.4559 39.0827C37.5487 34.3919 43.4211 30.9154 48.0175 29.9958C50.247 29.5498 51.8683 29.7677 53.047 30.4196C54.196 31.055 55.397 32.3646 56.2703 35.0907L61.9842 33.2603C60.7894 29.5303 58.8031 26.7466 55.9509 25.1691C53.1285 23.6081 49.9347 23.4934 46.8404 24.1124C40.7893 25.3231 33.9791 29.5678 27.7956 34.3285C15.286 43.9598 3.61778 57.101 2.82713 57.9315L7.17287 62.0685ZM56.2703 35.0907C57.1836 37.9419 57.2098 40.0389 56.8344 41.5376C56.4699 42.9927 55.679 44.0877 54.54 44.9195C52.126 46.6825 47.9609 47.3456 43.3141 46.5188C38.7268 45.7027 34.3973 43.5521 31.8304 40.6348C29.4225 37.8981 28.4617 34.4305 30.4276 30.0537L24.9543 27.5953C21.9565 34.2696 23.4775 40.2244 27.3258 44.5982C31.0152 48.7913 36.7163 51.4392 42.2631 52.4261C47.7505 53.4024 53.8228 52.8731 58.0787 49.7649C60.2746 48.1612 61.9268 45.9008 62.6546 42.9955C63.3714 40.1338 63.1391 36.8652 61.9842 33.2603L56.2703 35.0907ZM30.4276 30.0537C34.0028 22.0938 41.2009 16.3628 49.1105 12.4337C56.999 8.5152 65.2489 6.56592 70.3426 5.98037L69.6574 0.0196276C63.9572 0.674896 55.0234 2.79705 46.4413 7.06017C37.8804 11.3127 29.3209 17.8736 24.9543 27.5953L30.4276 30.0537Z" fill="#FA7328"/>
<circle cx="96" cy="7" r="4" fill="#FD8F2A"/>
</svg>
