<svg width="1200" height="146" viewBox="0 0 1200 146" fill="none" xmlns="http://www.w3.org/2000/svg">
<rect width="1200" height="146" fill="#B5A2FE"/>
<rect x="194" y="30" width="86" height="86" rx="20.2591" fill="white"/>
<path d="M226.421 72.5926L230.608 75.4536C233.587 77.4896 237.653 76.725 239.689 73.7458C241.725 70.7666 240.96 66.7011 237.981 64.6651L234.886 62.5504C226.572 56.8687 215.227 59.0025 209.545 67.3164L208.288 69.1563C202.606 77.4702 204.74 88.8159 213.054 94.4977L216.065 96.5558C219.09 98.623 223.218 97.8467 225.285 94.8218C227.319 91.8457 226.604 87.7901 223.675 85.6888L219.399 82.6205C216.696 80.6814 216.037 76.939 217.913 74.1927C219.821 71.4014 223.63 70.685 226.421 72.5926Z" fill="#B5A2FE" fill-opacity="0.9" stroke="#A993FF" stroke-width="0.810365"/>
<path d="M254.103 67.1829L253.81 69.6641C253.387 73.2476 255.949 76.4958 259.532 76.9192C263.116 77.3425 266.364 74.7808 266.787 71.1973L267.194 67.7527C268.262 58.7157 262.418 50.3028 253.577 48.1482L251.05 47.5323C250.239 47.3348 249.408 47.2382 248.574 47.2446L246.717 47.2588C237.529 47.3293 229.828 54.2266 228.75 63.3521L228.069 69.112C227.64 72.7505 230.241 76.0485 233.879 76.4784C237.459 76.9014 240.721 74.3883 241.226 70.8191L241.963 65.6076C242.429 62.314 245.439 59.995 248.742 60.3853C252.1 60.782 254.5 63.8254 254.103 67.1829Z" fill="#FF8A35" fill-opacity="0.9" stroke="#FF7715" stroke-width="0.810365"/>
<path d="M334.078 63.7266V68.5312H336.914V63.7266H339.727V78.0703H331.219V63.7266H334.078ZM334.078 75.6797H336.914V70.8984H334.078V75.6797ZM349.102 61.8281V83.1328H346.219V72.3984H344.344V82.1953H341.508V62.1562H344.344V69.9609H346.219V61.8281H349.102ZM361.558 62.1094C366.316 62.1211 369.351 63.6797 369.363 66.2344C369.351 68.7773 366.316 70.3242 361.558 70.3125C356.824 70.3242 353.789 68.7773 353.777 66.2344C353.789 63.6797 356.824 62.1211 361.558 62.1094ZM361.558 64.4297C358.605 64.4297 356.929 65.0273 356.917 66.2344C356.929 67.4414 358.617 68.0156 361.558 68.0156C364.535 68.0156 366.222 67.4414 366.222 66.2344C366.222 65.0273 364.546 64.4297 361.558 64.4297ZM368.964 75.6562V82.9219H354.105V75.6562H360.058V73.8281H351.832V71.4375H371.308V73.8281H363.082V75.6562H368.964ZM357.082 78.0469V80.5312H366.011V78.0469H357.082ZM382.78 62.8828C387.315 62.8945 390.831 65.3438 390.819 69.0469C390.831 72.7617 387.327 75.2109 382.78 75.2109C378.269 75.2109 374.753 72.7617 374.765 69.0469C374.753 65.3438 378.28 62.8945 382.78 62.8828ZM382.78 65.3672C379.851 65.3555 377.73 66.75 377.741 69.0469C377.73 71.3438 379.839 72.7266 382.78 72.7266C385.757 72.7266 387.866 71.3438 387.866 69.0469C387.866 66.75 385.757 65.3555 382.78 65.3672ZM392.554 78.0938V80.5781H373.077V78.0938H392.554ZM413.776 78.3281V80.7891H394.299V78.3281H402.502V75.1172H396.549V67.9219H408.573V65.6016H396.502V63.2109H411.573V70.2891H399.549V72.7031H412.065V75.1172H405.526V78.3281H413.776ZM428.728 67.0547C428.728 70.7344 429.759 74.2148 432.759 75.8438L431.002 78.2344C429.15 77.2031 427.955 75.4805 427.252 73.3594C426.502 75.7266 425.213 77.6953 423.291 78.8672L421.392 76.6172C424.615 74.7188 425.798 70.8984 425.798 67.2891V63.6562H428.728V67.0547ZM440.283 61.8281V83.1328H437.4V72.5625H435.595V82.1953H432.759V62.1562H435.595V70.1016H437.4V61.8281H440.283ZM462.513 78.3281V80.7891H443.036V78.3281H451.239V75.1172H445.286V67.9219H457.31V65.6016H445.239V63.2109H460.31V70.2891H448.286V72.7031H460.802V75.1172H454.263V78.3281H462.513ZM483.735 72.2109V74.6016H475.696V78.2812H472.626V74.6016H464.258V72.2109H483.735ZM481.602 80.3438V82.7812H466.532V76.3828H469.579V80.3438H481.602ZM473.962 62.2031C478.602 62.2148 481.708 63.9375 481.696 66.6328C481.708 69.3516 478.602 71.0625 473.962 71.0625C469.356 71.0625 466.251 69.3516 466.251 66.6328C466.251 63.9375 469.356 62.2148 473.962 62.2031ZM473.962 64.6172C471.243 64.6172 469.497 65.2969 469.508 66.6328C469.497 67.957 471.243 68.6484 473.962 68.6484C476.715 68.6484 478.45 67.957 478.438 66.6328C478.45 65.2969 476.715 64.6172 473.962 64.6172ZM502.625 63.5625V73.875H492.383V63.5625H502.625ZM495.383 65.9766V71.4609H499.648V65.9766H495.383ZM508.672 61.8281V67.9922H511.554V70.4766H508.672V77.3906H505.648V61.8281H508.672ZM509.468 80.3438V82.7812H494.843V75.8672H497.867V80.3438H509.468ZM529.894 61.8281V66.3047H532.777V68.8125H529.894V73.8281H526.87V61.8281H529.894ZM529.894 74.8125V82.9219H515.925V74.8125H529.894ZM518.902 77.2031V80.5312H526.941V77.2031H518.902ZM516.886 62.8359V70.2422C519.499 70.1953 522.253 69.9727 525.183 69.3984L525.511 71.8359C522.007 72.5625 518.655 72.75 515.644 72.75H513.839V62.8359H516.886ZM541.132 63.2344C544.507 63.2344 547.05 65.4258 547.038 68.4844C547.05 71.5547 544.507 73.7461 541.132 73.7344C537.757 73.7461 535.202 71.5547 535.202 68.4844C535.202 65.4258 537.757 63.2344 541.132 63.2344ZM541.132 65.8359C539.432 65.8477 538.155 66.8086 538.155 68.4844C538.155 70.1602 539.432 71.1562 541.132 71.1562C542.807 71.1562 544.073 70.1602 544.085 68.4844C544.073 66.8086 542.807 65.8477 541.132 65.8359ZM552.124 61.8047V83.2031H549.124V61.8047H552.124ZM534.288 76.4062C538.026 76.4062 543.37 76.3711 547.928 75.7031L548.139 77.9062C543.475 78.8086 538.366 78.8672 534.663 78.8672L534.288 76.4062ZM579.638 61.8281V83.1328H576.615V61.8281H579.638ZM573.24 64.0312C573.252 70.5352 571.002 75.8906 563.373 79.5469L561.779 77.1328C567.287 74.5195 569.689 71.1445 570.17 66.4219H562.928V64.0312H573.24ZM600.861 61.8281V83.1562H597.861V61.8281H600.861ZM583.048 77.1328C584.63 77.1328 586.482 77.1328 588.439 77.0859V75.2812C586.118 74.8477 584.607 73.3945 584.595 71.4141C584.607 69.0234 586.798 67.4062 589.939 67.4062C593.103 67.4062 595.318 69.0234 595.306 71.4141C595.318 73.3945 593.794 74.8477 591.462 75.2812V76.9688C593.255 76.875 595.048 76.7461 596.736 76.5234L596.947 78.7031C592.247 79.5586 587.185 79.5938 583.423 79.5938L583.048 77.1328ZM596.431 64.1719V66.5625H583.47V64.1719H588.439V61.8984H591.462V64.1719H596.431ZM589.939 69.6797C588.509 69.6797 587.49 70.3125 587.501 71.4141C587.49 72.5156 588.509 73.125 589.939 73.125C591.415 73.125 592.411 72.5156 592.423 71.4141C592.411 70.3125 591.415 69.6797 589.939 69.6797ZM623.653 71.3906V73.5938H604.177V71.3906H623.653ZM621.333 74.6719V79.7578H609.403V80.9297H621.942V82.9688H606.38V77.8125H618.356V76.7344H606.356V74.6719H621.333ZM621.286 62.2031V67.2188H609.567V68.3438H621.684V70.3828H606.591V65.2969H618.286V64.2422H606.567V62.2031H621.286ZM630.133 78.1875L627.813 84.375H625.071L626.711 78.1875H630.133ZM647.312 67.5938C647.312 71.0508 649.081 74.7305 652.656 76.2188L650.992 78.6094C648.519 77.543 646.785 75.4219 645.835 72.8438C644.874 75.6562 643.117 78 640.585 79.1484L638.851 76.7578C642.437 75.1523 644.23 71.2031 644.242 67.5938V66.3516H639.718V63.8672H651.788V66.3516H647.312V67.5938ZM656.874 61.8281V83.1562H653.828V61.8281H656.874ZM678.261 75.4219V83.1562H675.19V77.8125H663.589V75.4219H678.261ZM678.261 61.8281V74.4375H675.19V71.7656H670.479C669.448 72.8555 667.925 73.5 666.19 73.5C662.968 73.5 660.507 71.2852 660.518 68.2031C660.507 65.1562 662.968 62.9297 666.19 62.9297C667.936 62.9297 669.472 63.5859 670.503 64.6875H675.19V61.8281H678.261ZM666.19 65.5078C664.585 65.5078 663.378 66.5156 663.378 68.2031C663.378 69.9141 664.585 70.9102 666.19 70.9219C667.784 70.9102 668.979 69.9141 668.979 68.2031C668.979 66.5156 667.784 65.5078 666.19 65.5078ZM671.745 69.3281H675.19V67.125H671.768C671.827 67.4648 671.862 67.8281 671.862 68.2031C671.862 68.5898 671.827 68.9648 671.745 69.3281ZM705.682 61.8281V83.1328H702.658V61.8281H705.682ZM699.283 64.0312C699.295 70.5352 697.045 75.8906 689.416 79.5469L687.822 77.1328C693.33 74.5195 695.732 71.1445 696.213 66.4219H688.971V64.0312H699.283ZM725.896 61.8516V67.8516H728.779V70.3359H725.896V77.5078H722.872V61.8516H725.896ZM726.693 80.3438V82.7812H712.068V75.9609H715.091V80.3438H726.693ZM712.63 63.3281V66.3984H716.943V63.3281H719.943V74.1797H709.607V63.3281H712.63ZM712.63 71.7891H716.943V68.7188H712.63V71.7891ZM744.387 66.5859C744.399 70.4062 745.946 74.2852 749.379 75.9609L747.551 78.375C745.301 77.2383 743.778 75.1406 742.887 72.5625C741.961 75.3164 740.309 77.5781 737.895 78.75L736.067 76.3125C739.665 74.6367 741.364 70.5469 741.364 66.5859V63.4688H744.387V66.5859ZM753.34 61.8281V70.0312H756.481V72.5625H753.34V83.1562H750.317V61.8281H753.34ZM775.641 61.8281V83.1562H772.641V61.8281H775.641ZM757.828 77.1328C759.41 77.1328 761.262 77.1328 763.219 77.0859V75.2812C760.898 74.8477 759.387 73.3945 759.375 71.4141C759.387 69.0234 761.578 67.4062 764.719 67.4062C767.883 67.4062 770.098 69.0234 770.086 71.4141C770.098 73.3945 768.574 74.8477 766.242 75.2812V76.9688C768.035 76.875 769.828 76.7461 771.516 76.5234L771.727 78.7031C767.027 79.5586 761.965 79.5938 758.203 79.5938L757.828 77.1328ZM771.211 64.1719V66.5625H758.25V64.1719H763.219V61.8984H766.242V64.1719H771.211ZM764.719 69.6797C763.289 69.6797 762.27 70.3125 762.281 71.4141C762.27 72.5156 763.289 73.125 764.719 73.125C766.195 73.125 767.191 72.5156 767.203 71.4141C767.191 70.3125 766.195 69.6797 764.719 69.6797ZM797.39 63.9375V66.3047H793.124C793.194 68.4492 794.718 70.5938 798.093 71.4844L796.733 73.8281C794.296 73.1953 792.62 71.8477 791.671 70.125C790.71 72.0117 788.999 73.4883 786.491 74.1797L785.085 71.8359C788.472 70.9219 790.03 68.6367 790.101 66.3047H785.835V63.9375H790.101V61.7578H793.124V63.9375H797.39ZM802.147 61.8281V66.7969H805.03V69.3047H802.147V74.3203H799.124V61.8281H802.147ZM802.147 75.2344V82.9219H788.202V75.2344H802.147ZM791.179 77.5781V80.5312H799.194V77.5781H791.179ZM812.331 63.3047C814.253 63.3047 815.858 64.3594 816.854 66.1875H821.471V61.8047H824.495V83.2031H821.471V75.2578H817.042C816.069 77.332 814.381 78.5391 812.331 78.5391C809.131 78.5391 806.799 75.5742 806.799 70.8984C806.799 66.2578 809.131 63.3047 812.331 63.3047ZM812.331 66.0469C810.76 66.0586 809.67 67.7578 809.659 70.8984C809.67 74.0859 810.76 75.7969 812.331 75.7969C813.948 75.7969 815.026 74.0859 815.026 70.8984C815.026 67.7578 813.948 66.0586 812.331 66.0469ZM817.674 68.625C817.815 69.3281 817.885 70.0898 817.885 70.8984C817.885 71.5664 817.838 72.1992 817.745 72.7969H821.471V68.625H817.674ZM842.048 66.5625C842.048 70.6055 843.642 74.5195 847.181 76.0781L845.377 78.5156C843.009 77.3555 841.427 75.2461 840.548 72.6094C839.623 75.3867 837.982 77.6602 835.58 78.8672L833.681 76.4297C837.22 74.7891 839.002 70.7695 839.002 66.5625V63.4453H842.048V66.5625ZM852.009 61.8047V83.2031H848.986V70.9453H844.814V68.5078H848.986V61.8047H852.009ZM873.044 61.8047V83.2031H869.997V61.8047H873.044ZM859.286 63.4922V68.6953H863.833V63.4922H866.833V78.2109H856.263V63.4922H859.286ZM859.286 75.7734H863.833V71.0391H859.286V75.7734ZM887.68 64.5938C887.692 67.7227 890.422 71.0508 895.227 71.8594L893.938 74.3906C890.212 73.6523 887.446 71.5664 886.063 68.8359C884.669 71.5664 881.926 73.6758 878.212 74.3906L876.899 71.8594C881.704 71.0391 884.446 67.6641 884.446 64.5938V63.0703H887.68V64.5938ZM895.907 78.0703V80.5547H876.43V78.0703H895.907ZM922.086 70.9688V73.3828H914.351V63.5625H921.945V66H917.351V70.9688H922.086ZM923.422 78.2109V80.6953H903.945V78.2109H912.101V74.2734H915.125V78.2109H923.422ZM913.015 63.5859V66H908.468V70.875C910.144 70.8398 911.55 70.7227 913.156 70.4062L913.367 72.8906C911.211 73.3125 909.406 73.3711 906.781 73.3828H905.422V63.5859H913.015ZM941.995 61.8281V69.7734H945.136V72.2812H941.995V83.1562H938.972V61.8281H941.995ZM928.823 63.4922V68.6953H933.253V63.4922H936.253V78.2109H925.823V63.4922H928.823ZM928.823 75.7734H933.253V71.0391H928.823V75.7734Z" fill="white"/>
</svg>
